<?xml version="1.0" encoding="utf-8"?>
<!-- Generator: Adobe Illustrator 24.0.2, SVG Export Plug-In . SVG Version: 6.00 Build 0)  -->
<svg version="1.1" id="Слой_1" xmlns="http://www.w3.org/2000/svg" xmlns:xlink="http://www.w3.org/1999/xlink" x="0px" y="0px"
	 viewBox="0 0 240 178.054" enable-background="new 0 0 240 178.054" xml:space="preserve">
<path fill="#D0B086" d="M9.6,0h220.8c5.302,0,9.6,4.298,9.6,9.6v129.989c0,5.302-4.298,9.6-9.6,9.6H9.6c-5.302,0-9.6-4.298-9.6-9.6
	V9.6C0,4.298,4.298,0,9.6,0z"/>
<g opacity="0.4">
	
		<linearGradient id="SVGID_2_" gradientUnits="userSpaceOnUse" x1="120" y1="405.1888" x2="120" y2="258.4312" gradientTransform="matrix(1 0 0 1 0 -256)">
		<stop  offset="0" style="stop-color:#3D2714;stop-opacity:0.9"/>
		<stop  offset="0.3501" style="stop-color:#3F2916;stop-opacity:0.6549"/>
		<stop  offset="0.5092" style="stop-color:#462F1B;stop-opacity:0.5436"/>
		<stop  offset="0.6296" style="stop-color:#533B24;stop-opacity:0.4593"/>
		<stop  offset="0.7306" style="stop-color:#654B32;stop-opacity:0.3886"/>
		<stop  offset="0.8194" style="stop-color:#7D6043;stop-opacity:0.3264"/>
		<stop  offset="0.8996" style="stop-color:#9A7A58;stop-opacity:0.2703"/>
		<stop  offset="0.9718" style="stop-color:#BC9871;stop-opacity:0.2197"/>
		<stop  offset="1" style="stop-color:#CBA67C;stop-opacity:0.2"/>
	</linearGradient>
	<path fill="url(#SVGID_2_)" d="M236.769,2.431c1.508,1.695,2.431,3.922,2.431,6.369v129.989c0,5.302-4.298,9.6-9.6,9.6H10.4
		c-5.302,0-9.6-4.298-9.6-9.6V8.8c0-2.447,0.923-4.674,2.431-6.369C1.253,4.19,0,6.746,0,9.6v129.989c0,5.302,4.298,9.6,9.6,9.6
		h220.8c5.302,0,9.6-4.298,9.6-9.6V9.6C240,6.746,238.747,4.19,236.769,2.431z"/>
</g>
<g>
	<g>
		<g>
			<defs>
				<path id="SVGID_3_" d="M9.6,0h220.8c5.302,0,9.6,4.298,9.6,9.6v129.989c0,5.302-4.298,9.6-9.6,9.6H9.6
					c-5.302,0-9.6-4.298-9.6-9.6V9.6C0,4.298,4.298,0,9.6,0z"/>
			</defs>
			<clipPath id="SVGID_4_">
				<use xlink:href="#SVGID_3_"  overflow="visible"/>
			</clipPath>
			<g clip-path="url(#SVGID_4_)">
				<defs>
					<filter id="Adobe_OpacityMaskFilter" filterUnits="userSpaceOnUse" x="5.655" y="6.698" width="153.814" height="153.814">
						<feColorMatrix  type="matrix" values="1 0 0 0 0  0 1 0 0 0  0 0 1 0 0  0 0 0 1 0"/>
					</filter>
				</defs>
				<mask maskUnits="userSpaceOnUse" x="5.655" y="6.698" width="153.814" height="153.814" id="SVGID_1_">
					<g filter="url(#Adobe_OpacityMaskFilter)">
					</g>
				</mask>
				<g mask="url(#SVGID_1_)">
					<g>
						<circle fill="#936233" cx="82.562" cy="83.605" r="76.907"/>
					</g>
				</g>
			</g>
		</g>
	</g>
	<g>
		<g>
			<defs>
				<path id="SVGID_5_" d="M9.6,0h220.8c5.302,0,9.6,4.298,9.6,9.6v129.989c0,5.302-4.298,9.6-9.6,9.6H9.6
					c-5.302,0-9.6-4.298-9.6-9.6V9.6C0,4.298,4.298,0,9.6,0z"/>
			</defs>
			<clipPath id="SVGID_6_">
				<use xlink:href="#SVGID_5_"  overflow="visible"/>
			</clipPath>
			
				<linearGradient id="SVGID_7_" gradientUnits="userSpaceOnUse" x1="38.2307" y1="409.0783" x2="106.5085" y2="290.8177" gradientTransform="matrix(1 0 0 1 0 -256)">
				<stop  offset="0" style="stop-color:#C0925B"/>
				<stop  offset="1" style="stop-color:#B17C45"/>
			</linearGradient>
			<circle clip-path="url(#SVGID_6_)" fill="url(#SVGID_7_)" cx="72.37" cy="93.948" r="68.266"/>
		</g>
	</g>
</g>
<path fill="#F2EFEB" d="M9.6,0h220.8c5.302,0,9.6,4.298,9.6,9.6v32.657H0V9.6C0,4.298,4.298,0,9.6,0z"/>
<linearGradient id="SVGID_8_" gradientUnits="userSpaceOnUse" x1="70.1878" y1="289.4248" x2="225.3613" y2="344.7093" gradientTransform="matrix(1 0 0 1 0 -256)">
	<stop  offset="0" style="stop-color:#FFFFFF"/>
	<stop  offset="0.147" style="stop-color:#FFFFFF;stop-opacity:0.853"/>
	<stop  offset="1" style="stop-color:#FFFFFF;stop-opacity:0"/>
</linearGradient>
<path fill="url(#SVGID_8_)" d="M107.318,0l32.102,149.189h90.98c5.302,0,9.6-4.298,9.6-9.6V9.6c0-5.302-4.298-9.6-9.6-9.6H107.318z"
	/>
<g>
	<rect x="12" y="12" fill="#979593" width="83.362" height="18.257"/>
	<path fill="#38393F" d="M94.562,12.8v16.657H12.8V12.8H94.562 M95.362,12H12v18.257h83.362V12L95.362,12z"/>
</g>
<linearGradient id="SVGID_9_" gradientUnits="userSpaceOnUse" x1="120" y1="405.1888" x2="120" y2="256" gradientTransform="matrix(1 0 0 1 0 -256)">
	<stop  offset="0" style="stop-color:#000000;stop-opacity:0.2"/>
	<stop  offset="1" style="stop-color:#FFFFFF;stop-opacity:0"/>
</linearGradient>
<path fill="url(#SVGID_9_)" d="M9.6,0h220.8c5.302,0,9.6,4.298,9.6,9.6v129.989c0,5.302-4.298,9.6-9.6,9.6H9.6
	c-5.302,0-9.6-4.298-9.6-9.6V9.6C0,4.298,4.298,0,9.6,0z"/>
</svg>
