<?xml version="1.0" encoding="UTF-8" standalone="no"?>
<svg
   xmlns:dc="http://purl.org/dc/elements/1.1/"
   xmlns:cc="http://creativecommons.org/ns#"
   xmlns:rdf="http://www.w3.org/1999/02/22-rdf-syntax-ns#"
   xmlns:svg="http://www.w3.org/2000/svg"
   xmlns="http://www.w3.org/2000/svg"
   xmlns:sodipodi="http://sodipodi.sourceforge.net/DTD/sodipodi-0.dtd"
   xmlns:inkscape="http://www.inkscape.org/namespaces/inkscape"
   version="1.1"
   id="Слой_1"
   x="0px"
   y="0px"
   viewBox="0 0 250 190"
   enable-background="new 0 0 240 178.054"
   xml:space="preserve"
   sodipodi:docname="Джи пи си новый договор КТК.svg"
   width="250"
   height="190"
   inkscape:version="1.0.2 (e86c870879, 2021-01-15)"><metadata
   id="metadata1453"><rdf:RDF><cc:Work
       rdf:about=""><dc:format>image/svg+xml</dc:format><dc:type
         rdf:resource="http://purl.org/dc/dcmitype/StillImage" /><dc:title></dc:title></cc:Work></rdf:RDF></metadata><defs
   id="defs1451"><linearGradient
     x1="107.84604"
     y1="-22.253946"
     x2="107.84604"
     y2="207.37491"
     id="linearGradient-1"
     gradientTransform="matrix(1.1126973,0,0,0.89871703,3.49009,2.1767)"
     gradientUnits="userSpaceOnUse"><stop
       stop-color="#087EFF"
       offset="0%"
       id="stop6"
       style="stop-color:#0a69b1;stop-opacity:1" /><stop
       stop-color="#026ED0"
       offset="100%"
       id="stop8"
       style="stop-color:#263034;stop-opacity:1" /></linearGradient><filter
     x="-0.15000001"
     y="-0.2"
     width="1.3"
     height="1.4"
     filterUnits="objectBoundingBox"
     id="filter-2"><feGaussianBlur
       stdDeviation="10"
       in="SourceGraphic"
       id="feGaussianBlur11" /></filter></defs><sodipodi:namedview
   pagecolor="#ffffff"
   bordercolor="#666666"
   borderopacity="1"
   objecttolerance="10"
   gridtolerance="10"
   guidetolerance="10"
   inkscape:pageopacity="0"
   inkscape:pageshadow="2"
   inkscape:window-width="618"
   inkscape:window-height="1016"
   id="namedview1449"
   showgrid="false"
   inkscape:zoom="0.5560111"
   inkscape:cx="167.57891"
   inkscape:cy="15.687392"
   inkscape:window-x="20"
   inkscape:window-y="40"
   inkscape:window-maximized="0"
   inkscape:current-layer="Слой_1" />





<linearGradient
   id="SVGID_1_"
   gradientUnits="userSpaceOnUse"
   x1="70.187798"
   y1="289.4248"
   x2="225.3613"
   y2="344.70929"
   gradientTransform="translate(0,-256)">
	<stop
   offset="0"
   style="stop-color:#FFFFFF"
   id="stop1398" />
	<stop
   offset="0.147"
   style="stop-color:#FFFFFF;stop-opacity:0.853"
   id="stop1400" />
	<stop
   offset="1"
   style="stop-color:#FFFFFF;stop-opacity:0"
   id="stop1402" />
</linearGradient>



<g
   id="g2099"><path
     d="m 30.99009,12.1767 h 185 c 4.14214,0 7.5,4.029437 7.5,9 v 147.42911 c 0,4.97056 -3.35786,9 -7.5,9 h -185 c -4.142136,0 -7.5,-4.02944 -7.5,-9 V 21.1767 c 0,-4.970563 3.357864,-9 7.5,-9 z"
     id="Rectangle-7"
     fill="url(#linearGradient-1)"
     opacity="0.5"
     filter="url(#filter-2)"
     style="fill:url(#linearGradient-1);fill-rule:evenodd;stroke:none;stroke-width:1"
     transform="matrix(0.97290024,0,0,0.83019902,6.3334942,17.358733)"
     sodipodi:nodetypes="sssssssss" /><g
     id="g1485"
     transform="scale(1.0416667,1.0054361)"><path
       fill="#081318"
       d="m 9.6,0 h 220.8 c 5.302,0 9.6,4.298 9.6,9.6 v 129.989 c 0,5.302 -4.298,9.6 -9.6,9.6 H 9.6 c -5.302,0 -9.6,-4.298 -9.6,-9.6 V 9.6 C 0,4.298 4.298,0 9.6,0 Z"
       id="path1388" /><path
       fill="#0a69b1"
       d="M 230.4,149.189 H 9.6 c -5.302,0 -9.6,-4.298 -9.6,-9.6 v -18.204 h 240 v 18.204 c 0,5.302 -4.298,9.6 -9.6,9.6 z"
       id="path1390" /><path
       fill="#0a69b1"
       d="M 98.785,35.403 H 0 V 18.336 h 98.785 c 4.713,0 8.534,3.821 8.534,8.534 v 0 c -0.001,4.712 -3.821,8.533 -8.534,8.533 z"
       id="path1392" /><path
       fill="#89a53a"
       d="M 167.788,90.715 C 176.534,85.688 184.07,78.11 189.236,68.296 162.859,53.149 129.726,63.188 115.199,90.715 Z"
       id="path1394" /><path
       fill="#2a92bd"
       d="m 170.503,33.746 c -31.464,0 -56.97,25.506 -56.97,56.97 31.464,-10e-4 56.97,-25.506 56.97,-56.97 z"
       id="path1396" /><path
       fill="url(#SVGID_1_)"
       d="m 107.318,0 32.102,149.189 h 90.98 c 5.302,0 9.6,-4.298 9.6,-9.6 V 9.6 C 240,4.298 235.702,0 230.4,0 Z"
       id="path1405"
       style="fill:url(#SVGID_1_)" /><g
       opacity="0.4"
       id="g1432">
	
		<linearGradient
   id="SVGID_2_"
   gradientUnits="userSpaceOnUse"
   x1="120"
   y1="405.18881"
   x2="120"
   y2="258.43121"
   gradientTransform="translate(0,-256)">
		<stop
   offset="0"
   style="stop-color:#000000;stop-opacity:0.6"
   id="stop1407" />
		<stop
   offset="0.3075"
   style="stop-color:#020202;stop-opacity:0.723"
   id="stop1409" />
		<stop
   offset="0.4472"
   style="stop-color:#090909;stop-opacity:0.7789"
   id="stop1411" />
		<stop
   offset="0.553"
   style="stop-color:#161616;stop-opacity:0.8212"
   id="stop1413" />
		<stop
   offset="0.6417"
   style="stop-color:#282828;stop-opacity:0.8567"
   id="stop1415" />
		<stop
   offset="0.7197"
   style="stop-color:#404040;stop-opacity:0.8879"
   id="stop1417" />
		<stop
   offset="0.7902"
   style="stop-color:#5D5D5D;stop-opacity:0.9161"
   id="stop1419" />
		<stop
   offset="0.8551"
   style="stop-color:#808080;stop-opacity:0.9421"
   id="stop1421" />
		<stop
   offset="0.9156"
   style="stop-color:#A8A8A8;stop-opacity:0.9662"
   id="stop1423" />
		<stop
   offset="0.9704"
   style="stop-color:#D4D4D4;stop-opacity:0.9881"
   id="stop1425" />
		<stop
   offset="1"
   style="stop-color:#EFEFEF"
   id="stop1427" />
	</linearGradient>
	<path
   fill="url(#SVGID_2_)"
   d="m 236.769,2.431 c 1.508,1.695 2.431,3.922 2.431,6.369 v 129.989 c 0,5.302 -4.298,9.6 -9.6,9.6 H 10.4 c -5.302,0 -9.6,-4.298 -9.6,-9.6 V 8.8 C 0.8,6.353 1.723,4.126 3.231,2.431 1.253,4.19 0,6.746 0,9.6 v 129.989 c 0,5.302 4.298,9.6 9.6,9.6 h 220.8 c 5.302,0 9.6,-4.298 9.6,-9.6 V 9.6 c 0,-2.854 -1.253,-5.41 -3.231,-7.169 z"
   id="path1430"
   style="fill:url(#SVGID_2_)" />
</g><rect
       y="90.714996"
       fill="#173741"
       width="240"
       height="16.799999"
       id="rect1434"
       x="0" /><g
       id="Group-31_1_"
       transform="translate(23,56)">
	<path
   id="Rectangle-10_3_"
   fill-rule="evenodd"
   clip-rule="evenodd"
   fill="#ffffff"
   d="m 5.97,-4.541 h 26.415 c 1.509,0 2.733,1.074 2.733,2.4 v 19.2 c 0,1.326 -1.223,2.4 -2.733,2.4 H 5.97 c -1.509,0 -2.733,-1.074 -2.733,-2.4 v -19.2 c 0,-1.325 1.224,-2.4 2.733,-2.4 z" />
	
		<linearGradient
   id="Rectangle-10_1_"
   gradientUnits="userSpaceOnUse"
   x1="-953.96613"
   y1="-697.0769"
   x2="-953.96613"
   y2="-697.87689"
   gradientTransform="matrix(35,0,0,-30,33407.992,-20917.648)">
		<stop
   offset="0"
   style="stop-color:#FFE578"
   id="stop1437" />
		<stop
   offset="0.5164"
   style="stop-color:#FFDB45"
   id="stop1439" />
		<stop
   offset="1"
   style="stop-color:#FFCD00"
   id="stop1441" />
	</linearGradient>
	<path
   id="Rectangle-10_2_"
   fill-rule="evenodd"
   clip-rule="evenodd"
   fill="url(#Rectangle-10_1_)"
   d="m 5.97,-5.341 h 26.415 c 1.509,0 2.733,1.074 2.733,2.4 v 19.2 c 0,1.326 -1.223,2.4 -2.733,2.4 H 5.97 c -1.509,0 -2.733,-1.074 -2.733,-2.4 v -19.2 c 0,-1.325 1.224,-2.4 2.733,-2.4 z"
   style="fill:url(#Rectangle-10_1_)" />
	
		<path
   id="Combined-Shape_3_"
   opacity="0.4"
   fill-rule="evenodd"
   clip-rule="evenodd"
   fill="#ffffff"
   enable-background="new    "
   d="m 11.435,3.459 h 7.287 v -7.6 c 0,-0.221 0.204,-0.4 0.455,-0.4 0.251,0 0.455,0.179 0.455,0.4 v 7.6 h 15.03 c 0.251,0 0.455,0.179 0.455,0.4 0,0.221 -0.204,0.4 -0.455,0.4 h -15.03 v 6.4 h 15.03 c 0.251,0 0.455,0.179 0.455,0.4 0,0.221 -0.204,0.4 -0.455,0.4 h -15.03 v 7.6 c 0,0.221 -0.204,0.4 -0.455,0.4 -0.251,0 -0.455,-0.179 -0.455,-0.4 v -7.6 h -7.287 v 7.6 c 0,0.221 -0.204,0.4 -0.455,0.4 -0.251,0 -0.455,-0.179 -0.455,-0.4 v -7.6 H 3.694 c -0.251,0 -0.455,-0.179 -0.455,-0.4 0,-0.221 0.204,-0.4 0.455,-0.4 h 6.831 v -6.4 H 3.694 c -0.251,0 -0.455,-0.179 -0.455,-0.4 0,-0.221 0.204,-0.4 0.455,-0.4 h 6.831 v -7.6 c 0,-0.221 0.204,-0.4 0.455,-0.4 0.251,0 0.455,0.179 0.455,0.4 0,0 0,7.6 0,7.6 z m 0,0.8 v 6.4 h 7.287 v -6.4 z" />
	<path
   id="Combined-Shape_2_"
   fill-rule="evenodd"
   clip-rule="evenodd"
   fill="#e5b800"
   d="m 11.435,2.659 h 7.287 v -7.6 c 0,-0.221 0.204,-0.4 0.455,-0.4 0.251,0 0.455,0.179 0.455,0.4 v 7.6 h 15.03 c 0.251,0 0.455,0.179 0.455,0.4 0,0.221 -0.204,0.4 -0.455,0.4 h -15.03 v 6.4 h 15.03 c 0.251,0 0.455,0.179 0.455,0.4 0,0.221 -0.204,0.4 -0.455,0.4 h -15.03 v 7.6 c 0,0.221 -0.204,0.4 -0.455,0.4 -0.251,0 -0.455,-0.179 -0.455,-0.4 v -7.6 h -7.287 v 7.6 c 0,0.221 -0.204,0.4 -0.455,0.4 -0.251,0 -0.455,-0.179 -0.455,-0.4 v -7.6 H 3.694 c -0.251,0 -0.455,-0.179 -0.455,-0.4 0,-0.221 0.204,-0.4 0.455,-0.4 h 6.831 v -6.4 H 3.694 c -0.251,0 -0.455,-0.179 -0.455,-0.4 0,-0.221 0.204,-0.4 0.455,-0.4 h 6.831 v -7.6 c 0,-0.221 0.204,-0.4 0.455,-0.4 0.251,0 0.455,0.179 0.455,0.4 0,0 0,7.6 0,7.6 z m 0,0.8 v 6.4 h 7.287 v -6.4 z" />
</g></g></g>
</svg>
