<svg width="250" height="190" xmlns="http://www.w3.org/2000/svg" xmlns:xlink="http://www.w3.org/1999/xlink">
 <metadata id="metadata100">image/svg+xmlgazprom</metadata>
 <!-- Generator: Sketch 53.2 (72643) - https://sketchapp.com -->
 <title>gazprom</title>
 <desc>Created with Sketch.</desc>
 <defs>
  <filter id="filter-2" filterUnits="objectBoundingBox" height="1.4" width="1.3" y="-0.2" x="-0.15">
   <feGaussianBlur id="feGaussianBlur11" stdDeviation="10"/>
  </filter>
  <path id="path-4" d="m9,0l222,0c4.97056,0 9,4.02944 9,9l0,132c0,4.97056 -4.02944,9 -9,9l-222,0c-4.97056,0 -9,-4.02944 -9,-9l0,-132c0,-4.97056 4.02944,-9 9,-9z"/>
  <path id="path-8" d="m0.32122,0l123.67878,0c4.97056,0 9,4.02944 9,9l0,132c0,4.97056 -4.02944,9 -9,9l-91.43834,0l-32.24044,-150z"/>
  <linearGradient id="linearGradient-1" y2="1.06614" x2="0.5" y1="-0.18135" x1="0.5">
   <stop id="stop6" offset="0%" stop-color="#087EFF"/>
   <stop id="stop8" offset="100%" stop-color="#026ED0"/>
  </linearGradient>
  <linearGradient id="linearGradient-3" y2="0.98272" x2="0.5" y1="0" x1="0.5">
   <stop id="stop14" offset="0%" stop-color="#087EFF"/>
   <stop id="stop16" offset="100%" stop-color="#026ED0"/>
  </linearGradient>
  <linearGradient id="linearGradient-6" y2="1" x2="0.5" y1="0" x1="0.5">
   <stop id="stop20" offset="0%" stop-color="#FFE578"/>
   <stop id="stop22" offset="51.6382334%" stop-color="#FFDB45"/>
   <stop id="stop24" offset="100%" stop-color="#FFCD00"/>
  </linearGradient>
  <linearGradient id="linearGradient-7" y2="1" x2="0.5" y1="0" x1="0.5">
   <stop id="stop27" offset="0%" stop-color="#FFFFFF"/>
   <stop id="stop29" offset="100%" stop-opacity="0" stop-color="#FFFFFF"/>
  </linearGradient>
  <linearGradient y2="0.98272" x2="0.5" y1="0" x1="0.5" id="linearGradient102" xlink:href="#linearGradient-3"/>
 </defs>
 <g>
  <title>background</title>
  <rect fill="none" id="canvas_background" height="602" width="802" y="-1" x="-1"/>
 </g>
 <g>
  <title>Layer 1</title>
  <path fill-rule="evenodd" filter="url(#filter-2)" opacity="0.5" fill="url(#linearGradient-1)" id="Rectangle-7" d="m34.27546,44.14415l179.98654,0c4.02989,0 7.29675,3.34524 7.29675,7.47179l0,122.3955c0,4.12655 -3.26686,7.47179 -7.29675,7.47179l-179.98654,0c-4.02989,0 -7.29675,-3.34524 -7.29675,-7.47179l0,-122.3955c0,-4.12655 3.26686,-7.47179 7.29675,-7.47179z"/>
  <g id="g847">
   <g id="g768">
    <g transform="matrix(1.04167, 0, 0, 1, 240.367, 257.493)" id="g591">
     <path fill-rule="evenodd" fill="url(#linearGradient102)" id="path36" d="m-222.71205,-239.49334l222,0c4.97056,0 9,4.02944 9,9l0,132c0,4.97056 -4.02944,9 -9,9l-222,0c-4.97056,0 -9,-4.02944 -9,-9l0,-132c0,-4.97056 4.02944,-9 9,-9z"/>
     <g fill="none" fill-rule="evenodd" id="Path-3-+-Path-3-Copy-Mask">
      <mask id="mask-5">
       <use height="100%" width="100%" y="0" x="0" id="use38" xlink:href="#path-4"/>
      </mask>
      <use height="100%" width="100%" y="-239.49335" x="-231.71204" xlink:href="#path-4" fill="url(#linearGradient-3)" id="Mask"/>
      <g fill="#ffffff" mask="url(#mask-5)" opacity="0.9" id="Group-32">
       <g id="g50">
        <path id="Rectangle-14-Copy" d="m-116.71977,-169.90294c2.61301,-1.50862 5.84568,-1.94396 9.69801,-1.30603c0.18969,0.05083 0.30226,0.24581 0.25143,0.4355c-1.27273,3.40334 -3.2354,5.87075 -5.88802,7.40224c-2.65262,1.5315 -5.91597,2.08133 -9.79005,1.6495c-0.18969,-0.05082 -0.30226,-0.2458 -0.25144,-0.4355c1.3737,-3.65518 3.36705,-6.23708 5.98007,-7.74571z"/>
        <path id="Rectangle-14-Copy-8" d="m-101.71978,-195.90294c2.61302,-1.50862 5.84569,-1.94396 9.69802,-1.30603c0.18969,0.05083 0.30226,0.24581 0.25143,0.4355c-1.27273,3.40334 -3.23541,5.87075 -5.88803,7.40224c-2.65261,1.53149 -5.91596,2.08133 -9.79004,1.6495c-0.18969,-0.05083 -0.30226,-0.24581 -0.25144,-0.4355c1.3737,-3.65518 3.36705,-6.23708 5.98006,-7.74571z"/>
        <path id="Rectangle-14-Copy-9" d="m-28.71977,-179.90294c2.61301,-1.50862 5.84568,-1.94396 9.69801,-1.30603c0.18969,0.05083 0.30226,0.24581 0.25143,0.4355c-1.27273,3.40334 -3.2354,5.87075 -5.88802,7.40224c-2.65262,1.5315 -5.91597,2.08133 -9.79005,1.6495c-0.18969,-0.05083 -0.30226,-0.2458 -0.25144,-0.4355c1.3737,-3.65518 3.36705,-6.23708 5.98007,-7.74571z"/>
        <path id="Rectangle-14-Copy-6" d="m-14.71977,-207.90294c2.61301,-1.50862 5.84568,-1.94396 9.69801,-1.30603c0.18969,0.05083 0.30226,0.24581 0.25143,0.4355c-1.27273,3.40334 -3.2354,5.87075 -5.88802,7.40224c-2.65262,1.5315 -5.91597,2.08133 -9.79005,1.6495c-0.18969,-0.05082 -0.30226,-0.24581 -0.25144,-0.4355c1.3737,-3.65518 3.36705,-6.23708 5.98007,-7.74571z"/>
        <path id="Combined-Shape" d="m-50.58795,-196.27497c3.99042,-2.30387 6.94294,-6.01568 8.85755,-11.13543c0.07646,-0.28537 -0.09288,-0.57868 -0.37824,-0.65514c-5.79519,-0.95967 -10.6582,-0.30477 -14.58904,1.9647c-1.90608,1.10047 -4.15212,3.53613 -6.73813,7.30698l0,0c-0.73011,1.06463 -1.92916,1.71145 -3.21984,1.73694c-9.89404,0.19535 -16.77966,1.41227 -20.65686,3.65077c-6.71518,3.87702 -11.8379,10.51225 -15.36817,19.90571c-0.13062,0.4875 0.15868,0.98858 0.64617,1.1192c9.956,1.10975 18.34248,-0.30327 25.15945,-4.23905c3.91385,-2.25966 8.3442,-7.36064 13.29106,-15.30293l-0.00001,0c0.64801,-1.04039 1.73723,-1.72625 2.95548,-1.86101c4.72248,-0.5224 8.06934,-1.35265 10.04058,-2.49074z"/>
        <path id="path47" d="m-39.87506,-178.62029c6.81697,-3.93578 11.86086,-10.27679 15.13166,-19.02303c0.13062,-0.48749 -0.15868,-0.98857 -0.64617,-1.11919c-9.90011,-1.63944 -18.20775,-0.52065 -24.92294,3.35636c-3.27653,1.89171 -7.21311,6.13449 -11.80973,12.72834l0,0c-0.73295,1.05141 -1.92533,1.68792 -3.20678,1.71183c-12.84278,0.23957 -21.7603,1.80049 -26.75256,4.68277c-8.56014,4.9422 -15.0903,13.40043 -19.59048,25.37469c-0.16651,0.62143 0.20227,1.26018 0.8237,1.42669c12.69135,1.41464 23.38197,-0.38659 32.07186,-5.40371c4.48176,-2.58754 9.66837,-8.19798 15.55983,-16.83133l0,0c1.01585,-1.48862 2.64703,-2.44177 4.44262,-2.59598c8.95799,-0.7693 15.25765,-2.20511 18.89899,-4.30744z"/>
        <path id="Rectangle-14-Copy-7" d="m-60.73018,-167.04782c5.66092,-3.26834 12.66429,-4.21148 21.01011,-2.82943c0.41096,0.11011 0.65484,0.53253 0.54472,0.94348c-2.75729,7.37311 -7.0093,12.7186 -12.75603,16.03648c-5.74673,3.31787 -12.81656,4.50905 -21.2095,3.57353c-0.41096,-0.11011 -0.65483,-0.53253 -0.54472,-0.94348c2.97602,-7.91872 7.29449,-13.51225 12.95542,-16.78058z"/>
       </g>
      </g>
      <polygon points="-193.05808353424072,-78.24728393554688 -235.71204471588135,-78.24728393554688 -231.77051639556885,-165.49334716796875 -129.76024723052979,-165.49334716796875 " mask="url(#mask-5)" opacity="0.3" fill="#ffffff" id="Path-3"/>
      <polygon points="-121.05808353424072,-42.247283935546875 -243.71204471588135,-42.247283935546875 -239.77051639556885,-129.49334716796875 -57.760247230529785,-129.49334716796875 " mask="url(#mask-5)" opacity="0.3" fill="#ffffff" id="Path-3-Copy"/>
      <g opacity="0.5" fill="#ffffff" id="g71">
       <rect rx="2" height="12" width="8" y="-117.49335" x="-214.71204" id="Rectangle-11"/>
       <rect rx="2" height="12" width="8" y="-117.49335" x="-161.71204" id="Rectangle-11-Copy-10"/>
       <rect rx="2" height="12" width="8" y="-117.49335" x="-202.71204" id="Rectangle-11-Copy"/>
       <rect rx="2" height="12" width="8" y="-117.49335" x="-149.71204" id="Rectangle-11-Copy-11"/>
       <rect rx="2" height="12" width="8" y="-117.49335" x="-190.71204" id="Rectangle-11-Copy-2"/>
       <rect rx="2" height="12" width="8" y="-117.49335" x="-137.71204" id="Rectangle-11-Copy-12"/>
       <rect rx="2" height="12" width="8" y="-117.49335" x="-178.71204" id="Rectangle-11-Copy-3"/>
       <rect rx="2" height="12" width="8" y="-117.49335" x="-125.71204" id="Rectangle-11-Copy-13"/>
       <rect rx="2" height="12" width="8" y="-117.49335" x="-108.71204" id="Rectangle-11-Copy-17"/>
       <rect rx="2" height="12" width="8" y="-117.49335" x="-96.71204" id="Rectangle-11-Copy-16"/>
       <rect rx="2" height="12" width="8" y="-117.49335" x="-84.71204" id="Rectangle-11-Copy-15"/>
       <rect rx="2" height="12" width="8" y="-117.49335" x="-72.71204" id="Rectangle-11-Copy-14"/>
       <rect rx="2" height="12" width="8" y="-117.49335" x="-55.71204" id="Rectangle-11-Copy-21"/>
       <rect rx="2" height="12" width="8" y="-117.49335" x="-43.71204" id="Rectangle-11-Copy-20"/>
       <rect rx="2" height="12" width="8" y="-117.49335" x="-31.71204" id="Rectangle-11-Copy-19"/>
       <rect rx="2" height="12" width="8" y="-117.49335" x="-19.71204" id="Rectangle-11-Copy-18"/>
      </g>
     </g>
     <g fill="none" fill-rule="evenodd" id="Group-31">
      <path fill="#ffffff" id="Rectangle-10" d="m-192.71204,-180.49335l13,0c6.07513,0 11,4.92487 11,11l0,8c0,6.07513 -4.92487,11 -11,11l-13,0c-6.07513,0 -11,-4.92487 -11,-11l0,-8c0,-6.07513 4.92487,-11 11,-11z"/>
      <path fill="url(#linearGradient-6)" id="path76" d="m-192.71204,-181.49335l13,0c6.07513,0 11,4.92487 11,11l0,8c0,6.07513 -4.92487,11 -11,11l-13,0c-6.07513,0 -11,-4.92487 -11,-11l0,-8c0,-6.07513 4.92487,-11 11,-11z"/>
      <path opacity="0.4" fill="#ffffff" id="path78" d="m-194.71204,-170.49335l8,0l0,-9.5c0,-0.27614 0.22386,-0.5 0.5,-0.5c0.27614,0 0.5,0.22386 0.5,0.5l0,9.5l16.5,0c0.27614,0 0.5,0.22386 0.5,0.5c0,0.27614 -0.22386,0.5 -0.5,0.5l-16.5,0l0,8l16.5,0c0.27614,0 0.5,0.22386 0.5,0.5c0,0.27614 -0.22386,0.5 -0.5,0.5l-16.5,0l0,9.5c0,0.27614 -0.22386,0.5 -0.5,0.5c-0.27614,0 -0.5,-0.22386 -0.5,-0.5l0,-9.5l-8,0l0,9.5c0,0.27614 -0.22386,0.5 -0.5,0.5c-0.27614,0 -0.5,-0.22386 -0.5,-0.5l0,-9.5l-7.5,0c-0.27614,0 -0.5,-0.22386 -0.5,-0.5c0,-0.27614 0.22386,-0.5 0.5,-0.5l7.5,0l0,-8l-7.5,0c-0.27614,0 -0.5,-0.22386 -0.5,-0.5c0,-0.27614 0.22386,-0.5 0.5,-0.5l7.5,0l0,-9.5c0,-0.27614 0.22386,-0.5 0.5,-0.5c0.27614,0 0.5,0.22386 0.5,0.5l0,9.5zm0,1l0,8l8,0l0,-8l-8,0z"/>
      <path fill="#e5b800" id="path80" d="m-194.71204,-171.49335l8,0l0,-9.5c0,-0.27614 0.22386,-0.5 0.5,-0.5c0.27614,0 0.5,0.22386 0.5,0.5l0,9.5l16.5,0c0.27614,0 0.5,0.22386 0.5,0.5c0,0.27614 -0.22386,0.5 -0.5,0.5l-16.5,0l0,8l16.5,0c0.27614,0 0.5,0.22386 0.5,0.5c0,0.27614 -0.22386,0.5 -0.5,0.5l-16.5,0l0,9.5c0,0.27614 -0.22386,0.5 -0.5,0.5c-0.27614,0 -0.5,-0.22386 -0.5,-0.5l0,-9.5l-8,0l0,9.5c0,0.27614 -0.22386,0.5 -0.5,0.5c-0.27614,0 -0.5,-0.22386 -0.5,-0.5l0,-9.5l-7.5,0c-0.27614,0 -0.5,-0.22386 -0.5,-0.5c0,-0.27614 0.22386,-0.5 0.5,-0.5l7.5,0l0,-8l-7.5,0c-0.27614,0 -0.5,-0.22386 -0.5,-0.5c0,-0.27614 0.22386,-0.5 0.5,-0.5l7.5,0l0,-9.5c0,-0.27614 0.22386,-0.5 0.5,-0.5c0.27614,0 0.5,0.22386 0.5,0.5l0,9.5zm0,1l0,8l8,0l0,-8l-8,0z"/>
     </g>
     <g fill="none" fill-rule="evenodd" id="Group-20">
      <g id="Group-22">
       <mask id="mask-9">
        <use height="100%" width="100%" y="0" x="0" id="use83" xlink:href="#path-8"/>
       </mask>
       <use height="100%" width="100%" y="-239.49335" x="-124.71205" xlink:href="#path-8" fill="url(#linearGradient-7)" id="use86"/>
      </g>
     </g>
    </g>
   </g>
  </g>
 </g>
</svg>