<?xml version="1.0" encoding="UTF-8"?>
<svg width="250px" height="190px" viewBox="0 0 250 190" version="1.1" xmlns="http://www.w3.org/2000/svg" xmlns:xlink="http://www.w3.org/1999/xlink">
    <!-- Generator: Sketch 53.2 (72643) - https://sketchapp.com -->
    <title>Group 23</title>
    <desc>Created with Sketch.</desc>
    <defs>
        <linearGradient x1="50%" y1="0%" x2="50%" y2="100%" id="linearGradient-1">
            <stop stop-color="#EA053B" offset="0%"></stop>
            <stop stop-color="#D0021B" offset="100%"></stop>
        </linearGradient>
        <filter x="-15.0%" y="-21.4%" width="130.0%" height="142.9%" filterUnits="objectBoundingBox" id="filter-2">
            <feGaussianBlur stdDeviation="10" in="SourceGraphic"></feGaussianBlur>
        </filter>
        <linearGradient x1="50%" y1="0%" x2="50%" y2="100%" id="linearGradient-3">
            <stop stop-color="#EA053B" offset="0%"></stop>
            <stop stop-color="#D0021B" offset="100%"></stop>
        </linearGradient>
        <path d="M9,0 L231,0 C235.970563,-1.77635684e-15 240,4.02943725 240,9 L240,141 C240,145.970563 235.970563,150 231,150 L9,150 C4.02943725,150 6.08718376e-16,145.970563 0,141 L0,9 C-6.08718376e-16,4.02943725 4.02943725,0 9,0 Z" id="path-4"></path>
        <linearGradient x1="50%" y1="0%" x2="50%" y2="100%" id="linearGradient-6">
            <stop stop-color="#FFFFFF" offset="0%"></stop>
            <stop stop-color="#FFFFFF" stop-opacity="0" offset="100%"></stop>
        </linearGradient>
        <path d="M107.321223,0 L231,0 C235.970563,-1.77635684e-15 240,4.02943725 240,9 L240,141 C240,145.970563 235.970563,150 231,150 L139.56166,150 L107.321223,0 Z" id="path-7"></path>
        <linearGradient x1="50%" y1="0%" x2="50%" y2="100%" id="linearGradient-9">
            <stop stop-color="#FFE578" offset="0%"></stop>
            <stop stop-color="#FFDB45" offset="51.6382334%"></stop>
            <stop stop-color="#FFCD00" offset="100%"></stop>
        </linearGradient>
    </defs>
    <g id="Main" stroke="none" stroke-width="1" fill="none" fill-rule="evenodd">
        <g id="Index" transform="translate(-190.000000, -1636.000000)">
            <g id="Group-46" transform="translate(195.000000, 1535.000000)">
                <g id="Group-25">
                    <g id="Group-23" transform="translate(0.000000, 106.000000)">
                        <g id="Group-20-Copy">
                            <path d="M27.5,20 L212.5,20 C216.642136,20 220,23.7608081 220,28.4 L220,151.6 C220,156.239192 216.642136,160 212.5,160 L27.5,160 C23.3578644,160 20,156.239192 20,151.6 L20,28.4 C20,23.7608081 23.3578644,20 27.5,20 Z" id="Rectangle-7" fill="url(#linearGradient-1)" opacity="0.5" filter="url(#filter-2)"></path>
                            <path d="M9,0 L231,0 C235.970563,-1.77635684e-15 240,4.02943725 240,9 L240,141 C240,145.970563 235.970563,150 231,150 L9,150 C4.02943725,150 6.08718376e-16,145.970563 0,141 L0,9 C-6.08718376e-16,4.02943725 4.02943725,0 9,0 Z" id="Rectangle-7" fill="url(#linearGradient-3)"></path>
                            <g id="Group-20">
                                <g id="Group-22">
                                    <g id="Combined-Shape" opacity="0.200000003">
                                        <mask id="mask-5" fill="white">
                                            <use xlink:href="#path-4"></use>
                                        </mask>
                                        <g id="Mask"></g>
                                        <path d="M153,93.4430384 L153,56.786194 C153,53.8542197 154.603885,51.1571458 157.180013,49.7571329 L244.333254,2.3931632 L239.558271,-6.3931632 L152.744487,40.7863264 C151.278953,41.5827799 149.637474,42 147.969503,42 L92.9762593,42 C91.3082881,42 89.6668096,41.5827799 88.2012757,40.7863264 L1.3874918,-6.3931632 L-3.3874918,2.3931632 L83.8199869,49.7866087 C86.3961152,51.1866216 88,53.8836955 88,56.8156698 L88,93.4135626 C88,96.3455369 86.3961152,99.0426108 83.8199869,100.442624 L-3.3874918,147.836069 L1.3874918,156.622396 L90.4631551,108.213674 C91.928689,107.41722 93.5701675,107 95.2381387,107 L145.707624,107 C147.375595,107 149.017073,107.41722 150.482607,108.213674 L239.558271,156.622396 L244.333254,147.836069 L157.180013,100.472099 C154.603885,99.0720866 153,96.3750127 153,93.4430384 Z" fill="#FFFFFF" mask="url(#mask-5)"></path>
                                    </g>
                                    <rect id="Rectangle-9" fill="#DC032A" x="97" y="52" width="47" height="47" rx="5"></rect>
                                    <rect id="Rectangle-9" fill="#FFFFFF" opacity="0.200000003" x="107" y="62" width="27" height="27" rx="2"></rect>
                                    <mask id="mask-8" fill="white">
                                        <use xlink:href="#path-7"></use>
                                    </mask>
                                    <use id="Mask" fill="url(#linearGradient-6)" opacity="0.200000003" xlink:href="#path-7"></use>
                                </g>
                            </g>
                        </g>
                        <g id="Group-31" transform="translate(23.000000, 58.000000)">
                            <path d="M3,1 L32,1 C33.6568542,1 35,2.34314575 35,4 L35,28 C35,29.6568542 33.6568542,31 32,31 L3,31 C1.34314575,31 1.97926296e-15,29.6568542 1.77635684e-15,28 L0,4 C-2.02906125e-16,2.34314575 1.34314575,1 3,1 Z" id="Rectangle-10" fill="#FFFFFF"></path>
                            <path d="M3,0 L32,0 C33.6568542,-3.04359188e-16 35,1.34314575 35,3 L35,27 C35,28.6568542 33.6568542,30 32,30 L3,30 C1.34314575,30 1.97926296e-15,28.6568542 1.77635684e-15,27 L0,3 C-2.02906125e-16,1.34314575 1.34314575,3.04359188e-16 3,0 Z" id="Rectangle-10" fill="url(#linearGradient-9)"></path>
                            <path d="M9,11 L17,11 L17,1.5 C17,1.22385763 17.2238576,1 17.5,1 C17.7761424,1 18,1.22385763 18,1.5 L18,11 L34.5,11 C34.7761424,11 35,11.2238576 35,11.5 C35,11.7761424 34.7761424,12 34.5,12 L18,12 L18,20 L34.5,20 C34.7761424,20 35,20.2238576 35,20.5 C35,20.7761424 34.7761424,21 34.5,21 L18,21 L18,30.5 C18,30.7761424 17.7761424,31 17.5,31 C17.2238576,31 17,30.7761424 17,30.5 L17,21 L9,21 L9,30.5 C9,30.7761424 8.77614237,31 8.5,31 C8.22385763,31 8,30.7761424 8,30.5 L8,21 L0.5,21 C0.223857625,21 3.38176876e-17,20.7761424 0,20.5 C-3.38176876e-17,20.2238576 0.223857625,20 0.5,20 L8,20 L8,12 L0.5,12 C0.223857625,12 3.38176876e-17,11.7761424 0,11.5 C-3.38176876e-17,11.2238576 0.223857625,11 0.5,11 L8,11 L8,1.5 C8,1.22385763 8.22385763,1 8.5,1 C8.77614237,1 9,1.22385763 9,1.5 L9,11 Z M9,12 L9,20 L17,20 L17,12 L9,12 Z" id="Combined-Shape" fill="#FFFFFF" opacity="0.400000006"></path>
                            <path d="M9,10 L17,10 L17,0.5 C17,0.223857625 17.2238576,5.07265313e-17 17.5,0 C17.7761424,-5.07265313e-17 18,0.223857625 18,0.5 L18,10 L34.5,10 C34.7761424,10 35,10.2238576 35,10.5 C35,10.7761424 34.7761424,11 34.5,11 L18,11 L18,19 L34.5,19 C34.7761424,19 35,19.2238576 35,19.5 C35,19.7761424 34.7761424,20 34.5,20 L18,20 L18,29.5 C18,29.7761424 17.7761424,30 17.5,30 C17.2238576,30 17,29.7761424 17,29.5 L17,20 L9,20 L9,29.5 C9,29.7761424 8.77614237,30 8.5,30 C8.22385763,30 8,29.7761424 8,29.5 L8,20 L0.5,20 C0.223857625,20 3.38176876e-17,19.7761424 0,19.5 C-3.38176876e-17,19.2238576 0.223857625,19 0.5,19 L8,19 L8,11 L0.5,11 C0.223857625,11 3.38176876e-17,10.7761424 0,10.5 C-3.38176876e-17,10.2238576 0.223857625,10 0.5,10 L8,10 L8,0.5 C8,0.223857625 8.22385763,5.07265313e-17 8.5,0 C8.77614237,-5.07265313e-17 9,0.223857625 9,0.5 L9,10 Z M9,11 L9,19 L17,19 L17,11 L9,11 Z" id="Combined-Shape" fill="#E5B800"></path>
                        </g>
                    </g>
                </g>
            </g>
        </g>
    </g>
</svg>