<?xml version="1.0" encoding="UTF-8" standalone="no"?>
<svg
   xmlns:dc="http://purl.org/dc/elements/1.1/"
   xmlns:cc="http://creativecommons.org/ns#"
   xmlns:rdf="http://www.w3.org/1999/02/22-rdf-syntax-ns#"
   xmlns:svg="http://www.w3.org/2000/svg"
   xmlns="http://www.w3.org/2000/svg"
   xmlns:xlink="http://www.w3.org/1999/xlink"
   xmlns:sodipodi="http://sodipodi.sourceforge.net/DTD/sodipodi-0.dtd"
   xmlns:inkscape="http://www.inkscape.org/namespaces/inkscape"
   width="251"
   height="191"
   viewBox="0 -5 251 191"
   version="1.1"
   id="svg79"
   sodipodi:docname="NNK.svg"
   inkscape:version="1.0.2 (e86c870879, 2021-01-15)">
  <metadata
     id="metadata83">
    <rdf:RDF>
      <cc:Work
         rdf:about="">
        <dc:format>image/svg+xml</dc:format>
        <dc:type
           rdf:resource="http://purl.org/dc/dcmitype/StillImage" />
        <dc:title>Group 20 Copy</dc:title>
      </cc:Work>
    </rdf:RDF>
  </metadata>
  <sodipodi:namedview
     inkscape:document-rotation="0"
     pagecolor="#ffffff"
     bordercolor="#666666"
     borderopacity="1"
     objecttolerance="10"
     gridtolerance="10"
     guidetolerance="10"
     inkscape:pageopacity="0"
     inkscape:pageshadow="2"
     inkscape:window-width="2560"
     inkscape:window-height="1080"
     id="namedview81"
     showgrid="false"
     inkscape:zoom="1.4737594"
     inkscape:cx="18.377065"
     inkscape:cy="155.4335"
     inkscape:window-x="0"
     inkscape:window-y="0"
     inkscape:window-maximized="0"
     inkscape:current-layer="Group-20" />
  <!-- Generator: Sketch 53.2 (72643) - https://sketchapp.com -->
  <title
     id="title2">Group 20 Copy</title>
  <desc
     id="desc4">Created with Sketch.</desc>
  <defs
     id="defs35">
    <linearGradient
       inkscape:collect="always"
       id="linearGradient904">
      <stop
         style="stop-color:#808080;stop-opacity:1"
         offset="0"
         id="stop900" />
      <stop
         style="stop-color:#e99432;stop-opacity:0;"
         offset="1"
         id="stop902" />
    </linearGradient>
    <linearGradient
       x1="105.26274"
       y1="-11.354446"
       x2="105.26274"
       y2="216.71483"
       id="linearGradient-1"
       gradientTransform="scale(1.1400045,0.87718953)"
       gradientUnits="userSpaceOnUse">
      <stop
         stop-color="#000000"
         offset="0%"
         id="stop6" />
      <stop
         stop-color="#000000"
         offset="100%"
         id="stop8" />
    </linearGradient>
    <filter
       x="-0.15000001"
       y="-0.214"
       width="1.3"
       height="1.4289999"
       filterUnits="objectBoundingBox"
       id="filter-2">
      <feGaussianBlur
         stdDeviation="10"
         in="SourceGraphic"
         id="feGaussianBlur11" />
    </filter>
    <linearGradient
       x1="5.3425198"
       y1="57.810387"
       x2="189.73666"
       y2="131.92627"
       id="linearGradient-3"
       gradientTransform="scale(1.2649111,0.79056942)"
       gradientUnits="userSpaceOnUse">
      <stop
         stop-color="#DCDCDC"
         offset="0%"
         id="stop14" />
      <stop
         stop-color="#FFFFFF"
         offset="50.6357621%"
         id="stop16" />
      <stop
         stop-color="#D2D2D2"
         offset="100%"
         id="stop18" />
    </linearGradient>
    <path
       d="m 9,0 h 222 c 4.97056,0 9,4.0294372 9,9 v 132 c 0,4.97056 -4.02944,9 -9,9 H 9 c -4.9705628,0 -9,-4.02944 -9,-9 V 9 C 0,4.0294372 4.0294372,0 9,0 Z"
       id="path-4" />
    <linearGradient
       x1="16.201853"
       y1="0"
       x2="16.201853"
       y2="32.403702"
       id="linearGradient-6"
       gradientTransform="scale(1.0801234,0.9258201)"
       gradientUnits="userSpaceOnUse">
      <stop
         stop-color="#FFE578"
         offset="0%"
         id="stop22" />
      <stop
         stop-color="#FFDB45"
         offset="51.6382334%"
         id="stop24" />
      <stop
         stop-color="#FFCD00"
         offset="100%"
         id="stop26" />
    </linearGradient>
    <linearGradient
       x1="70.878448"
       y1="0"
       x2="70.878448"
       y2="141.07381"
       id="linearGradient-7"
       gradientTransform="scale(0.94049199,1.0632733)"
       gradientUnits="userSpaceOnUse">
      <stop
         stop-color="#FFFFFF"
         offset="0%"
         id="stop29" />
      <stop
         stop-color="#FFFFFF"
         stop-opacity="0"
         offset="100%"
         id="stop31" />
    </linearGradient>
    <path
       d="M 0.32122278,0 H 124 c 4.97056,0 9,4.0294372 9,9 v 132 c 0,4.97056 -4.02944,9 -9,9 H 32.56166 Z"
       id="path-8" />
    <linearGradient
       inkscape:collect="always"
       xlink:href="#linearGradient-3"
       id="linearGradient85"
       x1="5.3425198"
       y1="57.810387"
       x2="189.73666"
       y2="131.92627"
       gradientTransform="matrix(1.297354,0,0,0.81844957,-109.89046,-2.5698009)"
       gradientUnits="userSpaceOnUse" />
    <mask
       fill="#ffffff"
       id="mask-5">
      <use
         height="100%"
         width="100%"
         y="0"
         x="0"
         id="use40"
         xlink:href="#path-4" />
    </mask>
    <linearGradient
       x1="107.84604"
       y1="-22.253946"
       x2="107.84604"
       y2="207.37491"
       id="linearGradient-1-3"
       gradientTransform="matrix(1.1126973,0,0,0.89871703,3.49009,2.1767)"
       gradientUnits="userSpaceOnUse"
       xlink:href="#linearGradient-7">
      <stop
         stop-color="#087EFF"
         offset="0%"
         id="stop6-6" />
      <stop
         stop-color="#026ED0"
         offset="100%"
         id="stop8-7" />
    </linearGradient>
    <filter
       x="-0.15000001"
       y="-0.2"
       width="1.3"
       height="1.4"
       filterUnits="objectBoundingBox"
       id="filter-2-5">
      <feGaussianBlur
         stdDeviation="10"
         in="SourceGraphic"
         id="feGaussianBlur11-3" />
    </filter>
    <linearGradient
       inkscape:collect="always"
       xlink:href="#linearGradient904"
       id="linearGradient908"
       x1="129.18294"
       y1="209.56821"
       x2="123.82287"
       y2="-22.164076"
       gradientUnits="userSpaceOnUse" />
  </defs>
  <g
     style="fill:none;fill-rule:evenodd;stroke:none;stroke-width:1"
     id="Group-23-Copy-2"
     transform="translate(5,-11)">
    <g
       id="Group-20-Copy"
       transform="translate(0,16)">
      <g
         id="Group-20"
         transform="translate(107)">
        <g
           id="g950">
          <path
             d="m 30.99009,12.1767 h 185 c 4.14214,0 7.5,4.029437 7.5,9 v 147.42911 c 0,4.97056 -3.35786,9 -7.5,9 h -185 c -4.142136,0 -7.5,-4.02944 -7.5,-9 V 21.1767 c 0,-4.970563 3.357864,-9 7.5,-9 z"
             id="Rectangle-7"
             fill="url(#linearGradient-1)"
             opacity="0.5"
             filter="url(#filter-2)"
             style="fill:url(#linearGradient908);fill-opacity:1;fill-rule:evenodd;stroke:none;stroke-width:1;filter:url(#filter-2-5)"
             transform="matrix(0.96067646,0,0,0.82193113,-105.63397,12.080526)"
             sodipodi:nodetypes="sssssssss" />
          <g
             id="g72">
            <g
               id="g944"
               transform="matrix(1.0156177,0,0,0.99644547,-0.39330376,-2.1772418)">
              <path
                 d="m -100.65963,-2.5698009 h 227.69394 c 5.09805,0 9.23084,4.1715387 9.23084,9.3173932 V 143.40269 c 0,5.14585 -4.13279,9.3174 -9.23084,9.3174 h -227.69394 c -5.09805,0 -9.23083,-4.17155 -9.23083,-9.3174 V 6.7475923 c 0,-5.1458545 4.13278,-9.3173932 9.23083,-9.3173932 z"
                 id="path38"
                 fill="url(#linearGradient-3)"
                 style="fill:url(#linearGradient85);fill-rule:evenodd;stroke:none;stroke-width:1.03045" />
              <use
                 transform="matrix(1.0256484,0,0,1.0352659,-109.89046,-2.5698009)"
                 height="100%"
                 width="100%"
                 y="0"
                 x="0"
                 style="fill:url(#linearGradient-3);fill-rule:evenodd;stroke:none;stroke-width:1"
                 xlink:href="#path-4"
                 fill="url(#linearGradient-3)"
                 id="Mask" />
              <g
                 transform="matrix(1.0256484,0,0,1.0352659,-109.89046,-2.5698009)"
                 mask="url(#mask-5)"
                 id="Group-31"
                 style="fill:none;fill-rule:evenodd;stroke:none;stroke-width:1">
                <g
                   id="g50"
                   transform="translate(23,38)">
                  <path
                     fill="#ffffff"
                     id="Rectangle-10"
                     d="m 3,1 h 29 c 1.656854,0 3,1.3431458 3,3 v 24 c 0,1.656854 -1.343146,3 -3,3 H 3 C 1.3431457,31 0,29.656854 0,28 V 4 C 0,2.3431458 1.3431457,1 3,1 Z" />
                  <path
                     style="fill:url(#linearGradient-6)"
                     fill="url(#linearGradient-6)"
                     id="path45"
                     d="m 3,0 h 29 c 1.656854,0 3,1.3431457 3,3 v 24 c 0,1.656854 -1.343146,3 -3,3 H 3 C 1.3431457,30 0,28.656854 0,27 V 3 C 0,1.3431457 1.3431457,0 3,0 Z" />
                  <path
                     opacity="0.4"
                     fill="#ffffff"
                     id="Combined-Shape"
                     d="m 9,11 h 8 V 1.5 C 17,1.2238576 17.223858,1 17.5,1 17.776142,1 18,1.2238576 18,1.5 V 11 h 16.5 c 0.276142,0 0.5,0.223858 0.5,0.5 0,0.276142 -0.223858,0.5 -0.5,0.5 H 18 v 8 h 16.5 c 0.276142,0 0.5,0.223858 0.5,0.5 0,0.276142 -0.223858,0.5 -0.5,0.5 H 18 v 9.5 C 18,30.776142 17.776142,31 17.5,31 17.223858,31 17,30.776142 17,30.5 V 21 H 9 v 9.5 C 9,30.776142 8.7761424,31 8.5,31 8.2238576,31 8,30.776142 8,30.5 V 21 H 0.5 C 0.22385763,21 0,20.776142 0,20.5 0,20.223858 0.22385763,20 0.5,20 H 8 V 12 H 0.5 C 0.22385763,12 0,11.776142 0,11.5 0,11.223858 0.22385763,11 0.5,11 H 8 V 1.5 C 8,1.2238576 8.2238576,1 8.5,1 8.7761424,1 9,1.2238576 9,1.5 Z m 0,1 v 8 h 8 v -8 z" />
                  <path
                     fill="#e5b800"
                     id="path48"
                     d="m 9,10 h 8 V 0.5 C 17,0.22385763 17.223858,0 17.5,0 17.776142,0 18,0.22385763 18,0.5 V 10 h 16.5 c 0.276142,0 0.5,0.223858 0.5,0.5 0,0.276142 -0.223858,0.5 -0.5,0.5 H 18 v 8 h 16.5 c 0.276142,0 0.5,0.223858 0.5,0.5 0,0.276142 -0.223858,0.5 -0.5,0.5 H 18 v 9.5 C 18,29.776142 17.776142,30 17.5,30 17.223858,30 17,29.776142 17,29.5 V 20 H 9 v 9.5 C 9,29.776142 8.7761424,30 8.5,30 8.2238576,30 8,29.776142 8,29.5 V 20 H 0.5 C 0.22385763,20 0,19.776142 0,19.5 0,19.223858 0.22385763,19 0.5,19 H 8 V 11 H 0.5 C 0.22385763,11 0,10.776142 0,10.5 0,10.223858 0.22385763,10 0.5,10 H 8 V 0.5 C 8,0.22385763 8.2238576,0 8.5,0 8.7761424,0 9,0.22385763 9,0.5 Z m 0,1 v 8 h 8 v -8 z" />
                </g>
              </g>
              <g
                 transform="matrix(1.0256484,0,0,1.0352659,-109.89046,-2.5698009)"
                 id="g63"
                 mask="url(#mask-5)"
                 style="mix-blend-mode:multiply;fill:none;fill-rule:evenodd;stroke:none;stroke-width:1">
                <g
                   id="g61"
                   transform="translate(67,-11)">
                  <ellipse
                     ry="76.5"
                     rx="155.5"
                     cy="90.5"
                     cx="169.5"
                     fill="#f58500"
                     id="Oval-3" />
                  <ellipse
                     ry="83.5"
                     rx="155.5"
                     cy="109.23374"
                     cx="181.63722"
                     transform="rotate(-10,181.63723,109.23374)"
                     fill="#ffcd00"
                     id="Oval-3-Copy-4" />
                  <ellipse
                     ry="83.5"
                     rx="155.5"
                     cy="126.5"
                     cx="155.5"
                     fill="#f58500"
                     id="Oval-3-Copy-5" />
                  <path
                     fill="#ffcd00"
                     id="path56"
                     d="M 28.164247,122.44403 C 52.763474,148.74246 106.79778,167 169.5,167 255.38028,167 325,132.74978 325,90.5 325,62.838027 295.15651,38.605183 250.44516,25.168899 c 45.81993,6.90483 79.1422,27.642931 84.32967,57.062548 8.00792,45.415173 -54.06241,94.320783 -138.63798,109.233743 -84.57556,14.91295 -159.629307,-9.81399 -167.637227,-55.22916 -0.806641,-4.57469 -0.902225,-9.18479 -0.335376,-13.792 z" />
                  <ellipse
                     ry="59"
                     rx="155.5"
                     cy="142"
                     cx="267.5"
                     fill="#ffc700"
                     id="Oval-3-Copy-6" />
                  <path
                     fill="#cf0737"
                     id="path59"
                     d="M 28.164247,122.44403 C 19.417177,113.09275 14.39186,102.72479 14.021982,91.799478 30.554929,72.394632 60.526139,56.981394 97.542582,48.992677 57.980754,68.109626 31.512986,95.226322 28.164247,122.44403 Z" />
                </g>
              </g>
              <g
                 transform="matrix(1.0256484,0,0,1.0352659,-0.3557303,-2.8328276)"
                 id="Group-22">
                <mask
                   id="mask-9"
                   fill="#ffffff">
                  <use
                     xlink:href="#path-8"
                     id="use66"
                     x="0"
                     y="0"
                     width="100%"
                     height="100%" />
                </mask>
                <use
                   id="use69"
                   fill="url(#linearGradient-7)"
                   opacity="0.2"
                   xlink:href="#path-8"
                   style="fill:url(#linearGradient-7)"
                   x="0"
                   y="0"
                   width="100%"
                   height="100%" />
              </g>
            </g>
            <g
               transform="translate(-85.657018,121.79807)"
               id="g71"
               style="opacity:0.5;fill:#ffffff;fill-rule:evenodd;stroke:none;stroke-width:1">
              <rect
                 id="Rectangle-11"
                 x="0"
                 y="0"
                 width="8"
                 height="12"
                 rx="2" />
              <rect
                 id="Rectangle-11-Copy-10"
                 x="53"
                 y="0"
                 width="8"
                 height="12"
                 rx="2" />
              <rect
                 id="Rectangle-11-Copy"
                 x="12"
                 y="0"
                 width="8"
                 height="12"
                 rx="2" />
              <rect
                 id="Rectangle-11-Copy-11"
                 x="65"
                 y="0"
                 width="8"
                 height="12"
                 rx="2" />
              <rect
                 id="Rectangle-11-Copy-2"
                 x="24"
                 y="0"
                 width="8"
                 height="12"
                 rx="2" />
              <rect
                 id="Rectangle-11-Copy-12"
                 x="77"
                 y="0"
                 width="8"
                 height="12"
                 rx="2" />
              <rect
                 id="Rectangle-11-Copy-3"
                 x="36"
                 y="0"
                 width="8"
                 height="12"
                 rx="2" />
              <rect
                 id="Rectangle-11-Copy-13"
                 x="89"
                 y="0"
                 width="8"
                 height="12"
                 rx="2" />
              <rect
                 id="Rectangle-11-Copy-17"
                 x="106"
                 y="0"
                 width="8"
                 height="12"
                 rx="2" />
              <rect
                 id="Rectangle-11-Copy-16"
                 x="118"
                 y="0"
                 width="8"
                 height="12"
                 rx="2" />
              <rect
                 id="Rectangle-11-Copy-15"
                 x="130"
                 y="0"
                 width="8"
                 height="12"
                 rx="2" />
              <rect
                 id="Rectangle-11-Copy-14"
                 x="142"
                 y="0"
                 width="8"
                 height="12"
                 rx="2" />
              <rect
                 id="Rectangle-11-Copy-21"
                 x="159"
                 y="0"
                 width="8"
                 height="12"
                 rx="2" />
              <rect
                 id="Rectangle-11-Copy-20"
                 x="171"
                 y="0"
                 width="8"
                 height="12"
                 rx="2" />
              <rect
                 id="Rectangle-11-Copy-19"
                 x="183"
                 y="0"
                 width="8"
                 height="12"
                 rx="2" />
              <rect
                 id="Rectangle-11-Copy-18"
                 x="195"
                 y="0"
                 width="8"
                 height="12"
                 rx="2" />
            </g>
          </g>
        </g>
      </g>
    </g>
  </g>
</svg>
