<?xml version="1.0" encoding="UTF-8"?>
<svg width="250px" height="200px" viewBox="0 0 250 200" version="1.1" xmlns="http://www.w3.org/2000/svg" xmlns:xlink="http://www.w3.org/1999/xlink">
    <!-- Generator: Sketch 53.2 (72643) - https://sketchapp.com -->
    <title>petrol</title>
    <desc>Created with Sketch.</desc>
    <defs>
        <linearGradient x1="0%" y1="50%" x2="100%" y2="50%" id="linearGradient-1">
            <stop stop-color="#055FEA" offset="0%"></stop>
            <stop stop-color="#02D03A" offset="100%"></stop>
        </linearGradient>
        <filter x="-15.0%" y="-20.0%" width="130.0%" height="140.0%" filterUnits="objectBoundingBox" id="filter-2">
            <feGaussianBlur stdDeviation="10" in="SourceGraphic"></feGaussianBlur>
        </filter>
        <linearGradient x1="0%" y1="50%" x2="100%" y2="50%" id="linearGradient-3">
            <stop stop-color="#055FEA" offset="0%"></stop>
            <stop stop-color="#02D03A" offset="100%"></stop>
        </linearGradient>
        <path d="M9,0 L231,0 C235.970563,-1.77635684e-15 240,4.02943725 240,9 L240,141 C240,145.970563 235.970563,150 231,150 L9,150 C4.02943725,150 6.08718376e-16,145.970563 0,141 L0,9 C-6.08718376e-16,4.02943725 4.02943725,0 9,0 Z" id="path-4"></path>
        <linearGradient x1="50%" y1="0%" x2="50%" y2="100%" id="linearGradient-6">
            <stop stop-color="#97D881" stop-opacity="0" offset="0%"></stop>
            <stop stop-color="#5EB04A" offset="100%"></stop>
        </linearGradient>
        <linearGradient x1="50%" y1="0%" x2="50%" y2="100%" id="linearGradient-7">
            <stop stop-color="#8EF575" offset="0%"></stop>
            <stop stop-color="#5FA14F" offset="100%"></stop>
        </linearGradient>
        <linearGradient x1="50%" y1="0%" x2="50%" y2="100%" id="linearGradient-8">
            <stop stop-color="#FFE578" offset="0%"></stop>
            <stop stop-color="#FFDB45" offset="51.6382334%"></stop>
            <stop stop-color="#FFCD00" offset="100%"></stop>
        </linearGradient>
        <linearGradient x1="50%" y1="0%" x2="50%" y2="100%" id="linearGradient-9">
            <stop stop-color="#FFFFFF" offset="0%"></stop>
            <stop stop-color="#FFFFFF" stop-opacity="0" offset="100%"></stop>
        </linearGradient>
        <path d="M0.321222782,0 L124,0 C128.970563,-1.77635684e-15 133,4.02943725 133,9 L133,141 C133,145.970563 128.970563,150 124,150 L32.5616604,150 L0.321222782,0 Z" id="path-10"></path>
    </defs>
    <g id="Main" stroke="none" stroke-width="1" fill="none" fill-rule="evenodd">
        <g id="Index" transform="translate(-1000.000000, -1626.000000)">
            <g id="Group-46" transform="translate(195.000000, 1535.000000)">
                <g id="Group-25">
                    <g id="Group-23-Copy-4" transform="translate(810.000000, 90.000000)">
                        <g id="petrol" transform="translate(0.000000, 16.000000)">
                            <path d="M27.5,10 L212.5,10 C216.642136,10 220,14.0294373 220,19 L220,151 C220,155.970563 216.642136,160 212.5,160 L27.5,160 C23.3578644,160 20,155.970563 20,151 L20,19 C20,14.0294373 23.3578644,10 27.5,10 Z" id="Rectangle-7" fill="url(#linearGradient-1)" opacity="0.5" filter="url(#filter-2)"></path>
                            <path d="M9,0 L231,0 C235.970563,-1.77635684e-15 240,4.02943725 240,9 L240,141 C240,145.970563 235.970563,150 231,150 L9,150 C4.02943725,150 6.08718376e-16,145.970563 0,141 L0,9 C-6.08718376e-16,4.02943725 4.02943725,0 9,0 Z" id="Rectangle-7" fill="url(#linearGradient-3)"></path>
                            <g id="Path-5-+-Path-4-Mask">
                                <mask id="mask-5" fill="white">
                                    <use xlink:href="#path-4"></use>
                                </mask>
                                <use id="Mask" fill="url(#linearGradient-3)" xlink:href="#path-4"></use>
                                <polygon id="Path-5" fill="url(#linearGradient-6)" mask="url(#mask-5)" points="-3 50.5955072 243.448955 156 266 9.95619197 240.160557 -5 -3 -0.345088019"></polygon>
                                <polygon id="Path-4" fill="url(#linearGradient-7)" opacity="0.5" mask="url(#mask-5)" points="137 0.490631894 242.62724 116 244 26.0095712 150.732787 -2"></polygon>
                            </g>
                            <g id="Group-30" opacity="0.5" transform="translate(85.000000, 122.000000)" fill="#FFFFFF">
                                <rect id="Rectangle-11" x="0" y="0" width="10" height="13" rx="2"></rect>
                                <rect id="Rectangle-11-Copy" x="13" y="0" width="10" height="13" rx="2"></rect>
                                <rect id="Rectangle-11-Copy-2" x="26" y="0" width="10" height="13" rx="2"></rect>
                                <rect id="Rectangle-11-Copy-3" x="39" y="0" width="10" height="13" rx="2"></rect>
                                <rect id="Rectangle-11-Copy-4" x="62" y="0" width="10" height="13" rx="2"></rect>
                                <rect id="Rectangle-11-Copy-5" x="75" y="0" width="10" height="13" rx="2"></rect>
                                <rect id="Rectangle-11-Copy-6" x="88" y="0" width="10" height="13" rx="2"></rect>
                                <rect id="Rectangle-11-Copy-7" x="101" y="0" width="10" height="13" rx="2"></rect>
                                <rect id="Rectangle-11-Copy-8" x="114" y="0" width="10" height="13" rx="2"></rect>
                                <rect id="Rectangle-11-Copy-9" x="127" y="0" width="10" height="13" rx="2"></rect>
                            </g>
                            <g id="Group-31" transform="translate(23.000000, 56.000000)">
                                <path d="M3,1 L32,1 C33.6568542,1 35,2.34314575 35,4 L35,28 C35,29.6568542 33.6568542,31 32,31 L3,31 C1.34314575,31 1.97926296e-15,29.6568542 1.77635684e-15,28 L0,4 C-2.02906125e-16,2.34314575 1.34314575,1 3,1 Z" id="Rectangle-10" fill="#FFFFFF"></path>
                                <path d="M3,0 L32,0 C33.6568542,-3.04359188e-16 35,1.34314575 35,3 L35,27 C35,28.6568542 33.6568542,30 32,30 L3,30 C1.34314575,30 1.97926296e-15,28.6568542 1.77635684e-15,27 L0,3 C-2.02906125e-16,1.34314575 1.34314575,3.04359188e-16 3,0 Z" id="Rectangle-10" fill="url(#linearGradient-8)"></path>
                                <path d="M9,11 L17,11 L17,1.5 C17,1.22385763 17.2238576,1 17.5,1 C17.7761424,1 18,1.22385763 18,1.5 L18,11 L34.5,11 C34.7761424,11 35,11.2238576 35,11.5 C35,11.7761424 34.7761424,12 34.5,12 L18,12 L18,20 L34.5,20 C34.7761424,20 35,20.2238576 35,20.5 C35,20.7761424 34.7761424,21 34.5,21 L18,21 L18,30.5 C18,30.7761424 17.7761424,31 17.5,31 C17.2238576,31 17,30.7761424 17,30.5 L17,21 L9,21 L9,30.5 C9,30.7761424 8.77614237,31 8.5,31 C8.22385763,31 8,30.7761424 8,30.5 L8,21 L0.5,21 C0.223857625,21 3.38176876e-17,20.7761424 0,20.5 C-3.38176876e-17,20.2238576 0.223857625,20 0.5,20 L8,20 L8,12 L0.5,12 C0.223857625,12 3.38176876e-17,11.7761424 0,11.5 C-3.38176876e-17,11.2238576 0.223857625,11 0.5,11 L8,11 L8,1.5 C8,1.22385763 8.22385763,1 8.5,1 C8.77614237,1 9,1.22385763 9,1.5 L9,11 Z M9,12 L9,20 L17,20 L17,12 L9,12 Z" id="Combined-Shape" fill="#FFFFFF" opacity="0.400000006"></path>
                                <path d="M9,10 L17,10 L17,0.5 C17,0.223857625 17.2238576,5.07265313e-17 17.5,0 C17.7761424,-5.07265313e-17 18,0.223857625 18,0.5 L18,10 L34.5,10 C34.7761424,10 35,10.2238576 35,10.5 C35,10.7761424 34.7761424,11 34.5,11 L18,11 L18,19 L34.5,19 C34.7761424,19 35,19.2238576 35,19.5 C35,19.7761424 34.7761424,20 34.5,20 L18,20 L18,29.5 C18,29.7761424 17.7761424,30 17.5,30 C17.2238576,30 17,29.7761424 17,29.5 L17,20 L9,20 L9,29.5 C9,29.7761424 8.77614237,30 8.5,30 C8.22385763,30 8,29.7761424 8,29.5 L8,20 L0.5,20 C0.223857625,20 3.38176876e-17,19.7761424 0,19.5 C-3.38176876e-17,19.2238576 0.223857625,19 0.5,19 L8,19 L8,11 L0.5,11 C0.223857625,11 3.38176876e-17,10.7761424 0,10.5 C-3.38176876e-17,10.2238576 0.223857625,10 0.5,10 L8,10 L8,0.5 C8,0.223857625 8.22385763,5.07265313e-17 8.5,0 C8.77614237,-5.07265313e-17 9,0.223857625 9,0.5 L9,10 Z M9,11 L9,19 L17,19 L17,11 L9,11 Z" id="Combined-Shape" fill="#E5B800"></path>
                            </g>
                            <path d="M30.1680586,26 L133.474794,26 C134.579364,26 135.474794,26.8954305 135.474794,28 C135.474794,28.1542321 135.456954,28.3079465 135.421629,28.4580787 L132.72561,39.9161573 C132.300466,41.7230201 130.688147,43 128.831941,43 L25.5252058,43 C24.4206363,43 23.5252058,42.1045695 23.5252058,41 C23.5252058,40.8457679 23.5430462,40.6920535 23.5783715,40.5419213 L26.27439,29.0838427 C26.6995341,27.2769799 28.3118527,26 30.1680586,26 Z" id="Rectangle-14" fill="#FFFFFF" opacity="0.400000006"></path>
                            <g id="Group-20" transform="translate(107.000000, 0.000000)">
                                <g id="Group-22">
                                    <mask id="mask-11" fill="white">
                                        <use xlink:href="#path-10"></use>
                                    </mask>
                                    <use id="Mask" fill="url(#linearGradient-9)" opacity="0.200000003" xlink:href="#path-10"></use>
                                </g>
                            </g>
                        </g>
                    </g>
                </g>
            </g>
        </g>
    </g>
</svg>