<?xml version="1.0" encoding="utf-8"?>
<!-- Generator: Adobe Illustrator 24.0.2, SVG Export Plug-In . SVG Version: 6.00 Build 0)  -->
<svg version="1.1" id="Слой_1" xmlns="http://www.w3.org/2000/svg" xmlns:xlink="http://www.w3.org/1999/xlink" x="0px" y="0px"
	 viewBox="0 0 240 178.054" enable-background="new 0 0 240 178.054" xml:space="preserve">
<path fill="#F2F2F2" d="M9.6,0h220.8c5.302,0,9.6,4.298,9.6,9.6v129.989c0,5.302-4.298,9.6-9.6,9.6H9.6c-5.302,0-9.6-4.298-9.6-9.6
	V9.6C0,4.298,4.298,0,9.6,0z"/>
<path fill="#A0D3BD" d="M230.4,149.189H9.6c-5.302,0-9.6-4.298-9.6-9.6V82.008h240v57.581
	C240,144.891,235.702,149.189,230.4,149.189z"/>
<g opacity="0.4">
	
		<linearGradient id="SVGID_1_" gradientUnits="userSpaceOnUse" x1="120" y1="405.1888" x2="120" y2="258.4312" gradientTransform="matrix(1 0 0 1 0 -256)">
		<stop  offset="0" style="stop-color:#000000;stop-opacity:0.6"/>
		<stop  offset="0.3075" style="stop-color:#020202;stop-opacity:0.723"/>
		<stop  offset="0.4472" style="stop-color:#090909;stop-opacity:0.7789"/>
		<stop  offset="0.553" style="stop-color:#161616;stop-opacity:0.8212"/>
		<stop  offset="0.6417" style="stop-color:#282828;stop-opacity:0.8567"/>
		<stop  offset="0.7197" style="stop-color:#404040;stop-opacity:0.8879"/>
		<stop  offset="0.7902" style="stop-color:#5D5D5D;stop-opacity:0.9161"/>
		<stop  offset="0.8551" style="stop-color:#808080;stop-opacity:0.9421"/>
		<stop  offset="0.9156" style="stop-color:#A8A8A8;stop-opacity:0.9662"/>
		<stop  offset="0.9704" style="stop-color:#D4D4D4;stop-opacity:0.9881"/>
		<stop  offset="1" style="stop-color:#EFEFEF"/>
	</linearGradient>
	<path fill="url(#SVGID_1_)" d="M236.769,2.431c1.508,1.695,2.431,3.922,2.431,6.369v129.989c0,5.302-4.298,9.6-9.6,9.6H10.4
		c-5.302,0-9.6-4.298-9.6-9.6V8.8c0-2.447,0.923-4.674,2.431-6.369C1.253,4.19,0,6.746,0,9.6v129.989c0,5.302,4.298,9.6,9.6,9.6
		h220.8c5.302,0,9.6-4.298,9.6-9.6V9.6C240,6.746,238.747,4.19,236.769,2.431z"/>
</g>
<path fill="#EB891B" d="M215.785,100.972h-33.066c-2.651,0-4.8-2.149-4.8-4.8V67.846c0-2.651,2.149-4.8,4.8-4.8h33.066
	c2.651,0,4.8,2.149,4.8,4.8v28.326C220.585,98.822,218.435,100.972,215.785,100.972z"/>
<path fill="#1E9F5F" d="M33.447,19.13c-0.669,2.379-1.708,4.455-2.858,6.438c-1.165,1.972-2.475,3.824-3.91,5.574
	c-1.434,1.75-2.998,3.394-4.706,4.919c-1.722,1.514-3.559,2.933-5.769,4.046c0.664-2.383,1.702-4.46,2.854-6.443
	c1.166-1.971,2.475-3.824,3.915-5.57c1.439-1.746,3.003-3.39,4.712-4.915C29.407,21.668,31.242,20.247,33.447,19.13z"/>
<path fill="#FFFFFF" d="M38.23,23.913c-0.669,2.379-1.708,4.455-2.858,6.438c-1.165,1.972-2.475,3.824-3.91,5.574
	c-1.434,1.75-2.998,3.394-4.706,4.919c-1.722,1.514-3.559,2.933-5.769,4.046c0.664-2.383,1.702-4.46,2.854-6.442
	c1.166-1.971,2.475-3.824,3.915-5.57c1.439-1.746,3.003-3.39,4.712-4.915C34.19,26.45,36.025,25.03,38.23,23.913z"/>
<path fill="#D62B2E" d="M43.012,28.695c-0.669,2.379-1.708,4.455-2.858,6.438c-1.165,1.972-2.475,3.824-3.91,5.574
	c-1.434,1.75-2.998,3.394-4.707,4.919c-1.722,1.514-3.559,2.933-5.769,4.046c0.664-2.383,1.702-4.46,2.854-6.442
	c1.166-1.971,2.475-3.824,3.915-5.57c1.439-1.746,3.003-3.39,4.712-4.915C38.972,31.233,40.807,29.812,43.012,28.695z"/>
<path fill="#D62B2E" d="M90.97,58.638H44.612c-0.884,0-1.6-0.716-1.6-1.6V46.49c0-0.884,0.716-1.6,1.6-1.6H90.97
	c0.884,0,1.6,0.716,1.6,1.6v10.548C92.57,57.922,91.854,58.638,90.97,58.638z"/>
<path fill="#1E9F5F" d="M163.504,58.638H99.131c-0.884,0-1.6-0.716-1.6-1.6V46.49c0-0.884,0.716-1.6,1.6-1.6h64.373
	c0.884,0,1.6,0.716,1.6,1.6v10.548C165.104,57.922,164.387,58.638,163.504,58.638z"/>
<linearGradient id="SVGID_2_" gradientUnits="userSpaceOnUse" x1="120" y1="405.1888" x2="120" y2="256" gradientTransform="matrix(1 0 0 1 0 -256)">
	<stop  offset="0" style="stop-color:#000000;stop-opacity:0.2"/>
	<stop  offset="1" style="stop-color:#FFFFFF;stop-opacity:0"/>
</linearGradient>
<path fill="url(#SVGID_2_)" d="M9.6,0h220.8c5.302,0,9.6,4.298,9.6,9.6v129.989c0,5.302-4.298,9.6-9.6,9.6H9.6
	c-5.302,0-9.6-4.298-9.6-9.6V9.6C0,4.298,4.298,0,9.6,0z"/>
<linearGradient id="SVGID_3_" gradientUnits="userSpaceOnUse" x1="70.1878" y1="289.4248" x2="225.3613" y2="344.7093" gradientTransform="matrix(1 0 0 1 0 -256)">
	<stop  offset="0" style="stop-color:#FFFFFF"/>
	<stop  offset="0.147" style="stop-color:#FFFFFF;stop-opacity:0.853"/>
	<stop  offset="1" style="stop-color:#FFFFFF;stop-opacity:0"/>
</linearGradient>
<path fill="url(#SVGID_3_)" d="M107.318,0l32.102,149.189h90.98c5.302,0,9.6-4.298,9.6-9.6V9.6c0-5.302-4.298-9.6-9.6-9.6H107.318z"
	/>
</svg>
