<?xml version="1.0" encoding="UTF-8" standalone="no"?>
<svg
   xmlns:dc="http://purl.org/dc/elements/1.1/"
   xmlns:cc="http://creativecommons.org/ns#"
   xmlns:rdf="http://www.w3.org/1999/02/22-rdf-syntax-ns#"
   xmlns:svg="http://www.w3.org/2000/svg"
   xmlns="http://www.w3.org/2000/svg"
   xmlns:sodipodi="http://sodipodi.sourceforge.net/DTD/sodipodi-0.dtd"
   xmlns:inkscape="http://www.inkscape.org/namespaces/inkscape"
   version="1.1"
   x="0px"
   y="0px"
   viewBox="0 0 150.00001 160"
   xml:space="preserve"
   id="svg304"
   sodipodi:docname="ktk_logo.svg"
   width="150"
   height="160"
   inkscape:version="1.0.2 (e86c870879, 2021-01-15)"><metadata
   id="metadata310"><rdf:RDF><cc:Work
       rdf:about=""><dc:format>image/svg+xml</dc:format><dc:type
         rdf:resource="http://purl.org/dc/dcmitype/StillImage" /><dc:title /></cc:Work></rdf:RDF></metadata><defs
   id="defs308">
	
	
	
</defs><sodipodi:namedview
   pagecolor="#ffffff"
   bordercolor="#666666"
   borderopacity="1"
   objecttolerance="10"
   gridtolerance="10"
   guidetolerance="10"
   inkscape:pageopacity="0"
   inkscape:pageshadow="2"
   inkscape:window-width="804"
   inkscape:window-height="1016"
   id="namedview306"
   showgrid="false"
   inkscape:zoom="5.6568542"
   inkscape:cx="29.375393"
   inkscape:cy="100.86668"
   inkscape:window-x="837"
   inkscape:window-y="40"
   inkscape:window-maximized="0"
   inkscape:current-layer="g232"
   inkscape:document-rotation="0" />
<style
   type="text/css"
   id="style2">
	.st1{fill:#FFFFFF;}
	.st2{fill:none;stroke:#FFFFFF;stroke-width:2.3044;stroke-miterlimit:10;}
	.st3{fill:#FF0000;}
	.st4{fill:#FFE600;}
	.st5{fill:#1B1464;}
</style>
<g
   id="g234"
   transform="matrix(1.0112044,0,0,0.9547841,-118.52327,-51.651668)">
		<g
   id="g232">
			<path
   id="path155"
   style="stroke-width:0.982589"
   d="M 95.335938 124.84961 C 94.724159 124.84961 93.890792 124.85624 92.923828 125.00781 C 91.956864 125.15938 90.857505 125.45556 89.714844 126.0332 C 89.098009 126.34828 88.159959 126.82547 87.310547 127.5332 C 86.885841 127.88707 86.48357 128.2998 86.154297 128.77734 C 85.825023 129.25488 85.568957 129.79779 85.4375 130.41602 C 85.321211 130.9674 85.320385 131.49604 85.398438 131.99805 C 85.47649 132.50005 85.631629 132.97578 85.830078 133.41797 C 86.226976 134.30234 86.791745 135.05625 87.226562 135.63867 C 87.489476 135.98717 88.067967 136.74106 89.005859 137.51562 C 89.474805 137.90291 90.033693 138.29529 90.6875 138.64453 C 91.341307 138.99377 92.090041 139.3008 92.939453 139.51562 C 93.177086 139.57769 94.42321 139.8737 96.001953 139.83789 C 96.791325 139.81999 97.664098 139.71935 98.535156 139.46484 C 99.406214 139.21033 100.27686 138.80247 101.06055 138.16992 C 101.70772 137.64479 102.1872 137.0528 102.56641 136.4668 C 102.94561 135.8808 103.22411 135.30009 103.4668 134.79883 C 103.7196 134.2737 103.98629 133.70915 104.17969 133.07422 C 104.37308 132.43929 104.49277 131.73344 104.44727 130.92188 C 104.4321 130.6975 104.3972 130.18604 104.22656 129.55469 C 104.05592 128.92334 103.74952 128.17334 103.19336 127.4668 C 102.68017 126.81277 102.05265 126.32102 101.36914 125.95312 C 100.68563 125.58523 99.945325 125.33929 99.210938 125.17578 C 97.742163 124.84877 96.291526 124.84961 95.335938 124.84961 z "
   transform="matrix(0.98891975,0,0,1.0473572,117.21,54.097746)" /><path
   id="path161"
            class="text-success fill-current"
   d="M 95.335938 124.84961 C 96.291526 124.84961 97.742163 124.84877 99.210938 125.17578 C 99.945325 125.33929 100.68563 125.58523 101.36914 125.95312 C 102.05265 126.32102 102.68017 126.81277 103.19336 127.4668 C 103.74952 128.17334 104.05592 128.92334 104.22656 129.55469 C 104.3972 130.18604 104.4321 130.6975 104.44727 130.92188 C 104.49277 131.73344 104.37308 132.43929 104.17969 133.07422 C 103.98629 133.70915 103.7196 134.2737 103.4668 134.79883 C 103.22411 135.30009 102.94561 135.8808 102.56641 136.4668 C 102.1872 137.0528 101.70772 137.64479 101.06055 138.16992 C 100.27686 138.80247 99.406214 139.21033 98.535156 139.46484 C 97.664098 139.71935 96.791325 139.81999 96.001953 139.83789 C 94.42321 139.8737 93.177086 139.57769 92.939453 139.51562 C 92.090041 139.3008 91.341307 138.99377 90.6875 138.64453 C 90.033693 138.29529 89.474805 137.90291 89.005859 137.51562 C 88.067967 136.74106 87.489476 135.98717 87.226562 135.63867 C 86.791745 135.05625 86.226976 134.30234 85.830078 133.41797 C 85.631629 132.97578 85.47649 132.50005 85.398438 131.99805 C 85.320385 131.49604 85.321211 130.9674 85.4375 130.41602 C 85.568957 129.79779 85.825023 129.25488 86.154297 128.77734 C 86.48357 128.2998 86.885841 127.88707 87.310547 127.5332 C 88.159959 126.82547 89.098009 126.34828 89.714844 126.0332 C 90.857505 125.45556 91.956864 125.15938 92.923828 125.00781 C 93.890792 124.85624 94.724159 124.84961 95.335938 124.84961 z "
   transform="matrix(0.98891975,0,0,1.0473572,117.21,54.097746)" /><path
   id="path177"
            class="text-success fill-current"
   d="m 185.6516,71.096455 c -6.50875,-0.318751 -14.35129,0.297991 -22.74129,3.272991 -3.79,1.34 -9.88073,3.561851 -16.16073,8.871852 -9.79,8.27 -13.30938,18.328322 -15.40938,24.318322 -3.4,9.72 -2.92077,15.91984 -2.74077,17.65984 0.31,3.03 0.98095,5.66017 1.72095,7.81017 -4.9,5.19 -7.82994,9.57964 -9.52994,12.44964 -0.98,1.64 -1.62136,2.93128 -1.99136,4.63128 -0.5,2.29 -0.04,4.73057 0.78997,9.53054 0.62,3.61 1.37057,5.49 0.66057,8.33999 -0.2,0.78 -0.58982,1.98966 -1.01982,4.10966 -0.4,1.97999 -0.62923,3.00056 -0.52923,4.15056 0.13,1.53 0.54998,2.04852 0.78998,4.23853 0.13,1.16 0.21885,2.00092 0.0889,3.09092 -0.23,1.91001 -0.86961,2.18039 -1.58961,4.77039 -0.33,1.18 -0.61001,2.17869 -0.62001,3.5287 0,0.62999 -4e-4,2.46035 0.9696,4.41034 0.81,1.65001 1.89998,2.51058 4.05998,4.24057 2.03,1.62 3.04105,2.42046 4.48105,2.71045 1.95,0.36001 3.55958,-0.30075 5.02958,-0.93076 0.71,-0.29999 3.14997,-1.41036 6.08997,-4.50035 4.08,-4.29001 5.74038,-8.8702 6.36038,-10.8602 0.82,-2.64 1.08979,-4.9287 1.18979,-6.48871 1.34,2.87 2.6596,5.07872 3.6196,6.57871 2.39,3.72001 3.88919,5.06074 5.99919,9.09074 0.77,1.47 1.35114,2.58057 1.94114,4.24057 1.49,4.2 0.84037,5.76842 2.47037,9.88853 1.19,2.98999 2.24962,3.96035 2.82962,4.41035 0.63,0.49999 1.25035,0.79945 3.88035,1.67945 3.82,1.27 4.04919,1.14129 5.99919,1.85129 3.59,1.30999 3.52038,1.99908 6.36038,2.73908 1.25,0.33 2.95921,0.75982 5.20921,0.52982 2.7,-0.27 4.58152,-1.32944 5.03152,-1.58945 2.89,-1.68 4.24958,-4.12999 5.02958,-5.55999 0.91,-1.67 1.34961,-3.20057 1.58961,-4.24057 2.89,0.42 5.16035,0.0602 6.53035,-0.2598 1.42,-0.33 2.83961,-0.67923 4.23961,-1.84923 1.14,-0.96 1.78077,-2.04113 2.12077,-2.74114 0.5,0.16001 1.18999,0.33981 2.02999,0.43981 2.51,0.30001 4.43961,-0.37981 4.85961,-0.52982 2.36,-0.85999 3.69881,-2.41849 4.9388,-3.87849 0.84,-0.99 1.99075,-2.56039 2.91075,-4.77038 0.92,-0.17 2.31038,-0.54057 3.71038,-1.46057 1.71,-1.13001 2.48902,-2.44908 4.36902,-5.42907 0.78999,-1.26001 2.10979,-3.32094 3.83978,-5.96094 0.33001,0.39 0.82011,0.91057 1.46021,1.46057 0.55,0.47 2.56115,2.10887 5.83115,2.90887 2.02999,0.49 3.13902,0.76979 4.36902,0.25979 1.27,-0.52 1.22981,-1.28002 3.0498,-3.05002 1.80001,-1.75 2.04146,-1.20889 4.24155,-3.17888 1.74,-1.56001 1.83835,-2.11984 3.70845,-3.57984 1.38,-1.07 1.51076,-0.91945 2.12077,-1.58945 0.79,-0.87 0.88942,-1.43128 1.98942,-4.63129 0.57009,-1.63999 0.85136,-2.87054 1.99137,-3.97054 0.64999,-0.63 1.34843,-0.9785 1.84843,-1.18851 0.06,-0.53999 0.0706,-1.33017 -0.12941,-2.25017 -0.46001,-2.0601 -1.72018,-3.32963 -2.25018,-3.83963 -1.98001,-1.93 -4.35882,-2.32021 -5.55882,-2.52021 -1.37,-0.22 -4.95132,-0.8115 -8.08132,1.45853 -1.78001,1.28 -2.64981,2.94167 -3.04982,3.84168 -1.13,-0.25001 -2.2694,-0.50074 -3.39941,-0.75075 -0.53,-3.77 -1.63998,-8.65908 -4.05997,-13.94908 -1.28001,-2.81 -2.69999,-5.22149 -4.05998,-7.24149 0.58,-1.79001 1.22923,-4.11964 1.76923,-6.88965 0.64,-3.3 1.19047,-7.67943 1.06038,-12.70943 -0.11999,-4.67 -0.44035,-13.15021 -5.12036,-22.250206 -2.1,-4.07 -4.31056,-6.789635 -6.58057,-9.579636 -2.75999,-3.39 -6.13936,-7.639988 -11.51936,-11.119988 -1.2,-0.779999 -5.84071,-3.690015 -14.30071,-5.830015 -3.055,-0.770001 -8.22847,-2.025531 -14.73722,-2.34428 z m 28.13979,17.244573 c 0.37,-0.04 0.69883,0.159783 0.87882,0.259794 0.64001,0.379999 0.58039,0.779638 1.06039,1.149637 0.38,0.289998 0.75731,0.293478 1.10481,0.288432 0.34749,-0.005 0.66517,-0.01862 0.92517,0.241383 0.17015,0.170001 0.21076,0.360366 0.26076,1.720366 0.07,1.84 0.0296,2.241131 0.34959,2.741131 0.03,0.04 0.16343,0.244564 0.36699,0.435716 0.20356,0.191154 0.47725,0.368893 0.78225,0.353893 0.3,-0.01 0.36075,-0.209808 0.88076,-0.439808 0.31999,-0.139996 0.85942,-0.380927 1.36941,-0.220927 0.51001,0.15 0.76983,0.640544 1.01983,1.100543 0.39,0.730001 0.26117,1.009447 0.53116,1.589447 0.14,0.32 0.30939,0.509438 1.53939,1.499439 0.81501,0.655 1.37485,1.080406 1.72096,1.399206 0.3461,0.31879 0.47844,0.53097 0.43844,0.76097 -0.05,0.32 -0.38978,0.33075 -0.56979,0.84075 -0.12996,0.36 -0.0494,0.61055 0.0406,1.19055 0.24,1.47 0.0696,1.92925 0.34961,2.02925 0.3,0.1 0.56113,-0.38981 1.32112,-0.61982 0.64,-0.19001 1.35924,-0.11999 1.76925,0.09 0.53,0.275 0.78602,0.91346 0.90973,1.59967 0.1237,0.68621 0.11509,1.42015 0.11009,1.89015 -0.06,8.61 -0.0898,13.23964 0.22019,15.22964 0.025,0.15 0.081,0.48634 0.0599,0.88166 -0.0212,0.39533 -0.11949,0.84965 -0.40948,1.23965 -0.04,0.055 -0.17573,0.23678 -0.38823,0.40299 -0.2125,0.16621 -0.50178,0.31684 -0.85178,0.30684 -0.3,-0.01 -0.59531,-0.13722 -0.84406,-0.35389 -0.24875,-0.21668 -0.45092,-0.5228 -0.56592,-0.8878 0.39,1.85 0.50922,3.42037 0.52922,4.59037 0.0301,1.28 -0.0404,2.9404 -0.44038,4.86039 -0.32499,1.55501 -0.71055,2.4809 -1.05266,3.03979 -0.3421,0.55889 -0.64078,0.75075 -0.79577,0.84075 -0.24,0.13501 -0.56898,0.26821 -0.89427,0.32321 -0.32538,0.055 -0.6469,0.0318 -0.87689,-0.1432 -0.33001,-0.25 -0.41924,-0.76943 -0.52923,-1.40943 -0.13004,-0.74 -0.01,-0.89167 -0.17963,-1.06167 -0.20501,-0.205 -0.64668,-0.23259 -1.13572,-0.10638 -0.48903,0.12621 -1.02543,0.40621 -1.42543,0.81621 -0.64,0.65 -0.46039,1.16148 -1.06038,1.50148 -0.59,0.34 -0.95844,-0.05 -1.84843,0.09 -0.44,0.07 -0.76037,0.22944 -2.47037,1.58945 -1.35,1.07 -2.03077,1.60924 -2.12077,1.84924 -0.25,0.66499 -0.0425,1.21984 0.15645,1.78378 0.19894,0.56393 0.3893,1.13696 0.1043,1.83696 -0.22,0.55 -0.60115,0.84943 -1.32114,1.40943 -1.23001,0.97 -1.83996,0.8115 -2.81996,1.59149 -0.34,0.27002 -0.31961,0.32927 -1.58961,2.11927 -1.81,2.55 -2.13921,2.83887 -2.55922,3.08888 -0.89999,0.53 -1.82115,0.63188 -2.56115,0.71188 -1.55,0.16999 -1.64921,-0.25001 -2.55921,0 -0.8,0.22499 -1.23585,0.69948 -1.62825,1.12304 -0.3924,0.42356 -0.74135,0.79621 -1.37135,0.81621 -0.60999,0.03 -0.59112,-0.31961 -1.94114,-0.78961 -0.365,-0.13001 -0.97716,-0.34436 -1.57802,-0.44186 -0.60086,-0.0975 -1.19042,-0.0782 -1.51042,0.26184 -0.18995,0.20999 -0.13075,0.35965 -0.26075,1.14964 -0.09,0.56 -0.1776,1.08012 -0.30904,1.5199 -0.13144,0.43976 -0.30672,0.79908 -0.57172,1.03918 -0.25,0.23001 -0.62,0.38001 -2.65,0.18 -2.86,-0.28 -3.00921,-0.67982 -3.9692,-0.4398 -0.60999,0.15 -0.85846,0.38621 -1.19365,0.68733 -0.33519,0.30111 -0.75709,0.66713 -1.71709,1.08213 -0.4,0.175 -0.85819,0.3715 -1.37329,0.50322 -0.51509,0.13172 -1.08709,0.19864 -1.71709,0.11864 -0.23,-0.03 -0.76843,-0.23185 -1.84843,-0.62186 -2.02,-0.74 -2.33114,-0.97965 -2.56114,-1.23965 -0.56,-0.62 -0.36882,-0.99942 -0.87883,-1.31942 -0.345,-0.22 -0.66097,-0.19149 -1.01982,-0.12274 -0.35885,0.0687 -0.76058,0.17774 -1.28058,0.12274 -0.7,-0.07 -1.36131,-0.41042 -1.9141,-0.87144 -0.55279,-0.46101 -0.99705,-1.04263 -1.26705,-1.59763 -0.27,-0.565 -0.30534,-0.99312 -0.36505,-1.39715 -0.0597,-0.40403 -0.14378,-0.78397 -0.51378,-1.25397 -0.46,-0.59 -1.05075,-0.90964 -1.50076,-1.14964 -1.19,-0.64 -1.78037,-0.44964 -2.47037,-1.14963 -0.48,-0.48001 -0.25885,-0.61964 -0.70885,-1.05964 -0.32,-0.305 -0.63633,-0.43292 -1.05652,-0.54208 -0.42019,-0.10917 -0.94426,-0.19958 -1.68426,-0.42959 -0.39,-0.12 -0.7896,-0.28982 -1.58961,-0.61982 -1.21999,-0.51001 -1.6092,-0.74944 -3.34919,-1.58944 -1.71,-0.82 -2.58038,-1.22943 -3.09037,-1.31943 -0.73,-0.1249 -1.19746,-0.0749 -1.57996,-0.0511 -0.3825,0.0238 -0.68004,0.0213 -1.07004,-0.20865 -0.35,-0.205 -0.52304,-0.44275 -0.72044,-0.83052 -0.19741,-0.38778 -0.41918,-0.9256 -0.86917,-1.7306 -0.74001,-1.31 -1.11039,-1.96905 -1.68039,-2.46906 -0.93,-0.82 -1.41113,-0.58129 -3.97113,-1.94129 -0.34,-0.18 -0.84999,-0.45963 -1.40999,-0.96963 -0.14001,-0.13 -0.48844,-0.45964 -1.05845,-1.23964 -1.01,-1.38 -1.33154,-2.29927 -1.59154,-2.20927 -0.17,0.06 -0.0496,0.49963 -0.3496,1.05963 -0.15,0.285 -0.38825,0.57242 -0.65671,0.77733 -0.26845,0.20491 -0.56712,0.3273 -0.84212,0.2823 -0.37,-0.06 -0.53117,-0.37945 -1.15117,-1.58945 -1.32999,-2.59 -1.45998,-2.84072 -1.40998,-3.35072 0.07,-0.76001 0.43116,-0.81923 0.53116,-1.84924 0.02,-0.22 0.0684,-0.89129 -0.18156,-1.85129 -0.22501,-0.875 -0.55206,-1.40116 -0.89042,-1.87583 -0.33835,-0.47467 -0.68801,-0.89785 -0.95801,-1.56285 -0.245,-0.6 -0.2339,-0.92016 -0.18929,-1.38284 0.0446,-0.46269 0.12273,-1.06791 0.008,-2.23791 -0.135,-1.38 -0.41118,-2.22177 -0.64705,-3.04797 -0.23586,-0.8262 -0.4314,-1.63683 -0.4114,-2.95183 0.01,-1 0.0188,-1.49926 0.25881,-2.02926 0.305,-0.66 0.85208,-1.2053 1.75572,-1.65899 0.90365,-0.4537 2.16388,-0.81578 3.89387,-1.11078 2.35,-0.375 4.45982,-0.42752 6.00885,-0.38253 1.54903,0.045 2.53727,0.18752 2.64227,0.20252 1.73211,0.24847 3.01614,0.40267 4.51967,0.60959 0.15485,0.37529 0.3887,1.21663 0.4597,1.36852 0.01,0 0.70188,1.48812 2.22313,3.42437 0.76062,0.96812 1.72905,2.04874 2.92234,3.11139 1.19328,1.06266 2.61186,2.10751 4.27437,3.00501 1.005,0.545 1.98292,0.88318 2.89916,1.29693 0.91627,0.41375 1.77218,0.90309 2.53218,1.75309 0.115,0.13 0.30377,0.35232 0.53502,0.52982 0.23126,0.1775 0.50419,0.30979 0.78418,0.25979 0.33,-0.055 0.48681,-0.32346 0.68181,-0.69346 0.195,-0.37 0.42781,-0.84193 0.9078,-1.29693 0.04,-0.035 0.38099,-0.34505 0.88848,-0.60755 0.50751,-0.26246 1.18093,-0.47616 1.89093,-0.32116 0.10501,0.025 0.38567,0.0944 0.66443,0.23934 0.27875,0.14501 0.5567,0.36437 0.6567,0.68937 0.105,0.33 -0.0275,0.59621 -0.16997,0.86121 -0.14244,0.265 -0.29485,0.52916 -0.22985,0.85916 0.095,0.46999 0.59037,0.89282 1.14537,1.13532 0.55499,0.24247 1.16964,0.30523 1.50463,0.0552 0.31503,-0.235 0.29193,-0.67168 0.28393,-1.12918 -0.007,-0.4575 -2.9e-4,-0.93487 0.37471,-1.24988 0.26,-0.22004 0.75095,-0.24183 1.72095,-0.26184 1.47,-0.04 1.64077,0.17002 2.12077,0 0.51001,-0.17499 0.70349,-0.53666 0.88848,-0.97166 0.185,-0.435 0.36055,-0.9424 0.83054,-1.40739 0.41001,-0.4075 0.89219,-0.63237 1.39453,-0.76097 0.50235,-0.12861 1.0249,-0.16062 1.51428,-0.18001 0.48937,-0.0194 0.94618,-0.0266 1.31728,-0.10638 0.37108,-0.0799 0.65599,-0.23209 0.80349,-0.54209 0.13,-0.28 0.11511,-0.61053 0.0251,-0.92052 -0.09,-0.31 -0.25493,-0.59984 -0.42492,-0.79984 -0.29002,-0.34 -0.60417,-0.43186 -0.95416,-0.50936 -0.35,-0.0775 -0.73468,-0.1414 -1.16468,-0.4214 -0.48,-0.31 -0.92877,-0.82955 -1.19752,-1.4258 -0.26875,-0.59625 -0.35863,-1.26901 -0.12362,-1.88401 0.15,-0.4 0.44214,-0.78747 0.79964,-1.06372 0.3575,-0.27625 0.77978,-0.44185 1.18979,-0.39685 0.45499,0.05 0.68255,0.33835 0.96381,0.7671 0.28125,0.42875 0.61635,0.999 1.28637,1.614 0.41999,0.38 1.61113,0.96925 3.97113,2.11926 1.89002,0.92 2.24,1.05149 2.65,1.59149 0.39,0.52 0.49239,0.97352 0.59489,1.36852 0.10252,0.39499 0.2049,0.73054 0.5949,1.01054 0.40001,0.28998 0.92691,0.39707 1.45441,0.36207 0.5275,-0.035 1.05634,-0.21299 1.45634,-0.49299 0.54,-0.38 0.44979,-0.65945 1.18979,-1.58945 0.355,-0.44501 0.67914,-0.85248 1.01789,-1.17623 0.33874,-0.32375 0.69094,-0.563 1.10095,-0.67301 0.69,-0.18499 1.19028,0.087 1.69777,0.36821 0.50751,0.28126 1.02221,0.5714 1.7422,0.4214 0.55,-0.115 1.08384,-0.45689 1.47759,-0.91439 0.39374,-0.4575 0.64818,-1.03081 0.64318,-1.60581 0,-0.15 -0.0111,-0.90943 -0.53116,-1.31943 -0.325,-0.25498 -0.67434,-0.24388 -1.13185,-0.17388 -0.45749,0.07 -1.02196,0.19888 -1.77696,0.17388 -0.14,-0.005 -0.72727,-0.0264 -1.31727,-0.15137 -0.59001,-0.125 -1.18273,-0.35439 -1.33273,-0.77939 -0.0825,-0.23 -0.0388,-0.52433 0.10044,-0.8387 0.13922,-0.31439 0.37335,-0.64826 0.67022,-0.95326 0.29687,-0.305 0.65641,-0.5816 1.04687,-0.78347 0.39047,-0.20188 0.81229,-0.32844 1.23228,-0.33344 0.72001,-0.01 1.59057,0.42943 3.31057,1.31943 0.96,0.5 1.33843,0.77073 1.84843,0.66073 0.37501,-0.075 0.52432,-0.40313 0.70306,-0.77938 0.17875,-0.37625 0.38846,-0.8019 0.88848,-1.0719 0.55999,-0.30004 0.72991,-0.0393 1.12992,-0.32935 0.415,-0.3 0.46491,-0.75045 0.50991,-1.26419 0.045,-0.51376 0.084,-1.09172 0.47901,-1.64672 0.55999,-0.79 1.08096,-0.47011 1.72095,-1.26011 0.28001,-0.345 0.3876,-0.66122 0.4539,-1.13122 0.0663,-0.47 0.0897,-1.09267 0.20474,-2.04767 0.28,-2.290001 0.55057,-2.191223 0.66056,-3.911222 0.02,-0.280002 0.0906,-1.589356 -0.12941,-3.289356 -0.06,-0.49 -0.31932,-2.249922 -1.25932,-4.659922 -0.0539,-0.139494 -0.21499,-0.462129 -0.28779,-0.642324 0.23281,-0.321016 0.53371,-0.643589 0.97733,-0.687328 z M 129.62891,137.1311 c 0.245,0.995 0.5889,2.22881 1.0739,3.63506 0.485,1.40625 1.11262,2.98402 1.92762,4.66402 0.805,1.66 1.61944,3.06093 2.60944,4.55968 0.99001,1.49875 2.15516,3.09586 3.66016,5.15087 1.45,1.98 3.48996,4.66927 6.08997,7.76927 -0.47001,0.65 -0.93998,1.29129 -1.40998,1.94129 -0.47,-0.84 -1.25037,-2.02094 -2.47037,-3.18094 -1.155,-1.09 -2.34997,-1.82337 -3.39748,-2.32587 -1.0475,-0.5025 -1.94786,-0.77507 -2.51286,-0.94507 -1.13,-0.33 -2.86959,-0.69983 -5.02959,-0.61983 0.785,0.64 1.70022,1.43815 2.67897,2.40565 0.97875,0.9675 2.0214,2.10437 3.0614,3.42436 0.66,0.84009 1.43394,1.82287 2.20769,3.00911 0.77375,1.18625 1.54689,2.57739 2.20189,4.23239 0.42,1.05 0.97272,2.4342 1.35397,4.1117 0.19063,0.83874 0.33858,1.75121 0.40561,2.7309 0.067,0.97969 0.0533,2.02593 -0.0792,3.13593 -0.22,1.8325 -0.72239,3.46868 -1.36942,4.90539 -0.64703,1.43681 -1.4399,2.67435 -2.24052,3.70872 -0.80063,1.03438 -1.60803,1.86609 -2.28881,2.49156 -0.68078,0.62547 -1.23451,1.04601 -1.52201,1.25602 -0.78,0.575 -1.6576,1.20922 -2.69635,1.71422 -1.03875,0.505 -2.23903,0.87985 -3.66403,0.93485 -1.46999,0.055 -2.75854,-0.25096 -3.79729,-0.64846 -1.03875,-0.3975 -1.82767,-0.88579 -2.29267,-1.20078 -0.37,-0.49 -0.86924,-1.26132 -1.14924,-2.30132 -0.255,-0.94001 -0.2569,-1.81896 -0.1719,-2.54271 0.085,-0.72375 0.25653,-1.29081 0.35153,-1.60581 0.44,-1.5 0.63884,-3.05571 0.81509,-4.61696 0.17625,-1.56126 0.33067,-3.12878 0.68567,-4.65379 0.53,-2.285 1.03774,-4.77866 1.24774,-7.43991 0.105,-1.33063 0.13414,-2.70154 0.056,-4.1117 -0.0781,-1.41024 -0.2649,-2.85876 -0.5949,-4.33876 -0.135,-0.61 -0.45862,-1.95087 -0.78612,-3.70462 -0.3275,-1.75375 -0.65849,-3.92095 -0.80349,-6.18595 -0.05,-0.72001 -0.10925,-1.93869 0.26075,-3.43869 0.265,-1.07 0.66458,-1.94624 1.11833,-2.71249 0.45375,-0.76625 0.96088,-1.42289 1.44088,-2.05789 1.21,-1.61 2.91959,-3.94944 5.02959,-7.14944 z m 125.08097,22.6491 c 1.37999,-0.1 2.52056,0.0109 3.31055,0.13092 0.87501,0.13999 1.90905,0.30494 2.85281,0.65869 0.47187,0.17687 0.9205,0.3997 1.31534,0.69142 0.39484,0.29172 0.73585,0.65099 0.99085,1.0985 0.075,0.13499 0.22597,0.39892 0.33222,0.73642 0.10625,0.3375 0.1676,0.74941 0.0676,1.18441 -0.085,0.3725 -0.27229,0.69052 -0.52151,0.96349 -0.24921,0.27297 -0.55989,0.50159 -0.89427,0.69346 -0.66875,0.38375 -1.42932,0.6237 -1.96432,0.7937 -1.065,0.34 -2.03494,0.42867 -2.98994,0.38867 -0.955,-0.04 -1.89415,-0.20867 -2.89915,-0.38867 -1.20001,-0.21499 -1.95333,-0.47278 -2.44333,-0.73028 -0.49,-0.2575 -0.71724,-0.51529 -0.86724,-0.73029 -0.3,-0.42 -0.43378,-0.86294 -0.49252,-1.21919 -0.0588,-0.35625 -0.0417,-0.62664 -0.0367,-0.70164 0.045,-0.59 0.26616,-1.0699 0.53116,-1.45239 0.265,-0.38251 0.57304,-0.66735 0.78804,-0.86735 0.55,-0.5 1.14573,-0.80064 1.67073,-0.9819 0.52501,-0.18125 0.97967,-0.24298 1.24968,-0.26797 z m -21.04932,1.5199 c 0.44,0.095 1.45922,0.31677 2.53798,0.87551 0.53936,0.27939 1.09373,0.64332 1.59733,1.11692 0.5036,0.47359 0.95659,1.05764 1.29409,1.77764 0.48,1.035 0.58286,2.04716 0.54661,2.86591 -0.0362,0.81875 -0.21085,1.444 -0.28585,1.70401 -0.2,0.68749 -0.49447,1.28613 -0.84214,1.80832 -0.34765,0.52219 -0.74962,0.96886 -1.16275,1.35011 -0.82625,0.76251 -1.70153,1.26694 -2.29653,1.61194 -1.295,0.74503 -2.55924,1.11568 -3.62926,1.29694 -1.07,0.18124 -1.94571,0.17364 -2.46071,0.16365 -0.57,-0.01 -1.54999,-0.0387 -2.69249,-0.29867 -1.1425,-0.25999 -2.44789,-0.75173 -3.66789,-1.69172 -0.41999,-0.32501 -0.96248,-0.74329 -1.40998,-1.26829 -0.4475,-0.525 -0.79827,-1.15765 -0.83826,-1.91265 -0.025,-0.51501 0.0963,-1.01432 0.28006,-1.48308 0.18375,-0.46874 0.42898,-0.90692 0.64898,-1.29692 0.45,-0.81001 0.92967,-1.36037 1.24967,-1.72037 0.765,-0.84 1.45314,-1.59743 2.20189,-2.26246 0.74875,-0.665 1.55887,-1.23604 2.56888,-1.70604 0.465,-0.22 1.30402,-0.61473 2.40276,-0.87348 1.09875,-0.25875 2.45761,-0.38228 3.95761,-0.0573 z m 9.76558,3.46118 c 0.47125,0.005 1.02779,0.0789 1.61279,0.30889 0.59,0.23 1.03114,0.53961 1.32114,0.78961 -2.11,2.57 -4.23072,5.12948 -6.35072,7.68948 0.56,-2.04 1.11108,-4.08936 1.66108,-6.15936 l 0.65864,-2.5202 c 0.23999,-0.05 0.62582,-0.11342 1.09707,-0.10842 z m -24.63607,3.34868 c -1.05,1.055 -1.8799,2.05615 -2.5399,2.96615 -0.66,0.90999 -1.15008,1.72906 -1.52008,2.42405 -0.14,0.26501 -0.40009,0.76864 -0.81509,1.3624 -0.415,0.59374 -0.98606,1.27856 -1.74606,1.90855 -0.61,0.51 -1.29996,0.94963 -2.19996,1.05963 -0.195,0.025 -0.57824,0.0741 -0.98699,0.0266 -0.40875,-0.0475 -0.84185,-0.19141 -1.13185,-0.55641 -0.26,-0.33 -0.38075,-0.80965 -0.26075,-1.23964 0.16,-0.56 0.69076,-0.86167 0.88076,-0.97168 2.09,-1.2 3.84034,-2.91848 5.91034,-4.14852 1.06,-0.62999 2.58958,-1.57113 4.40958,-2.83113 z m -56.38967,7.77949 c 1.34,0.05 2.52242,0.093 3.71617,0.22297 1.19375,0.13008 2.39878,0.34871 3.78378,0.7487 1.095,0.31501 1.97997,0.56996 2.77747,0.88371 0.7975,0.31375 1.50711,0.68555 2.25211,1.23556 1.055,0.77499 1.82264,1.6427 2.48389,2.63271 0.66125,0.98999 1.2165,2.10209 1.8465,3.36708 1.21,2.42001 1.20922,3.25946 3.17922,7.41947 0.58,1.24 1.03036,2.11093 1.85036,3.09093 1.33,1.6 1.91038,1.39909 3.09038,2.82909 0.42,0.5 0.49039,0.70037 2.30039,4.50036 1.31,2.75008 1.35884,2.83095 1.49884,3.27095 0.205,0.635 0.44967,1.38654 0.58717,2.24404 0.1375,0.85751 0.16898,1.82115 -0.056,2.87614 -0.08,0.37 -0.19742,0.92149 -0.44617,1.52399 -0.24875,0.6025 -0.62922,1.25469 -1.23422,1.82469 -0.655,0.62001 -1.38076,0.9651 -2.14201,1.1701 -0.76125,0.205 -1.55834,0.26934 -2.35835,0.32934 -0.92,0.07 -2.26422,0.17295 -3.79922,-0.047 -0.7675,-0.11001 -1.58316,-0.30011 -2.41629,-0.61574 -0.83313,-0.31563 -1.68445,-0.75647 -2.52445,-1.36647 -0.77001,-0.5575 -1.40769,-1.16849 -1.93535,-1.78583 -0.52765,-0.61734 -0.94608,-1.24031 -1.27671,-1.82469 -0.66125,-1.16875 -0.97333,-2.1793 -1.11833,-2.65931 -0.225,-0.75 -0.53705,-1.7991 -0.6258,-2.9866 -0.0444,-0.59375 -0.033,-1.22342 0.0734,-1.8656 0.10641,-0.64219 0.30818,-1.29744 0.64318,-1.94744 0.52,-1.01499 1.23478,-1.75609 1.95853,-2.31359 0.72375,-0.5575 1.45567,-0.93215 2.01067,-1.21714 1.21,-0.625 2.38305,-0.94668 3.39555,-1.10668 1.0125,-0.16001 1.8656,-0.15797 2.4356,-0.13297 -0.9,-0.39 -2.38154,-0.89962 -4.24154,-0.96962 -1.315,-0.05 -2.4611,0.13401 -3.4786,0.41526 -1.0175,0.28124 -1.90521,0.65917 -2.70021,0.99417 -1.16,0.5 -2.82114,1.33113 -4.59114,2.74113 -0.615,-0.075 -1.16279,-0.27255 -1.59154,-0.56254 -0.42875,-0.29001 -0.73883,-0.67396 -0.87883,-1.11896 -0.125,-0.4 -0.0886,-0.78679 0.004,-1.12305 0.0925,-0.33624 0.24267,-0.62112 0.34767,-0.8162 0.44,-0.81 1.08367,-1.38491 1.77117,-1.81241 0.6875,-0.4275 1.41806,-0.70668 2.02806,-0.92667 1.91,-0.7 4.77034,-1.58131 8.56034,-2.21132 -1.75,-0.29999 -3.20961,-0.3598 -4.23961,-0.3498 -1.66,0.01 -2.93999,0.18982 -5.29999,0.52982 -1.54,0.22 -2.82038,0.44982 -3.71038,0.61982 -1.26,-0.66 -2.84958,-1.66889 -4.40958,-3.17889 -1.48,-1.43 -2.25997,-2.65037 -3.43997,-4.50037 -0.61,-0.94999 -0.99774,-1.65996 -1.22649,-2.26245 -0.22875,-0.6025 -0.29928,-1.09802 -0.27428,-1.61809 0.03,-0.76 0.25038,-1.36945 0.44038,-1.76946 0.38001,-0.48999 1.00887,-1.15126 1.94887,-1.67127 0.495,-0.28 1.02105,-0.48425 1.78855,-0.60551 0.7675,-0.12124 1.77797,-0.15932 3.24297,-0.10432 z m 39.08937,4.67015 c -1.03,0.29001 -2.53008,0.80991 -4.17008,1.78992 -1.75,1.045 -3.07827,2.26164 -4.06577,3.36913 -0.9875,1.1075 -1.6342,2.10567 -2.0242,2.72068 -0.4,0.62 -0.86204,1.42166 -1.30954,2.39542 -0.4475,0.97375 -0.8807,2.11959 -1.2207,3.43459 -0.285,-0.215 -0.70787,-0.56327 -1.14537,-1.06577 -0.4375,-0.50249 -0.88922,-1.15925 -1.23422,-1.98425 -0.105,-0.245 -0.36059,-0.8491 -0.51184,-1.65285 -0.15125,-0.80376 -0.19798,-1.80546 0.11202,-2.84546 0.195,-0.6475 0.49792,-1.20848 0.86917,-1.69582 0.37125,-0.48735 0.81114,-0.90277 1.27864,-1.26215 0.935,-0.71875 1.9819,-1.21195 2.8219,-1.61195 1.09,-0.51499 2.13285,-0.82064 3.21785,-1.0269 1.085,-0.20624 2.21281,-0.31367 3.47281,-0.43367 1.61,-0.15 2.95933,-0.16091 3.90933,-0.13092 z m 3.62732,0.99212 c 1.515,-0.0737 2.79825,0.11799 3.57325,0.26798 -1.01,0.33 -2.44113,0.90084 -3.97113,1.92084 -1.285,0.855 -2.26937,1.77168 -2.97062,2.53043 -0.70125,0.75876 -1.11899,1.35922 -1.26899,1.57922 -0.61,0.9 -1.43977,2.33989 -1.97977,4.29989 -0.185,-0.145 -0.58449,-0.47179 -0.98699,-0.98803 -0.4025,-0.51625 -0.80744,-1.22131 -1.00244,-2.1213 -0.04,-0.20006 -0.10577,-0.56521 -0.11203,-1.02896 -0.006,-0.46375 0.0464,-1.02712 0.24144,-1.62218 0.325,-0.985 0.92961,-1.71517 1.58961,-2.27268 0.66,-0.5575 1.3749,-0.9426 1.9199,-1.2376 0.8525,-0.45749 1.71597,-0.77125 2.55535,-0.97984 0.83937,-0.20861 1.65492,-0.31089 2.41242,-0.34777 z" />
			
			
			<path
   class="st1"
   d="m 175.83,178.07 c 0.81,0.51 1.88,1.29 2.91,2.47 0.87,0.99 1.46,1.97 1.85,2.74 2.37,-0.54 5.35,-1.3 8.74,-2.38 0,0 6.34,-2.02 12.09,-4.68 1.7,-0.78 3.38,-1.64 3.38,-1.64 0.06,-0.03 0.57,-0.29 1.11,-0.57 1.01,-0.53 2.71,-1.45 5.05,-2.82 0.04,-0.02 -2.37,1.38 -5.99,2.95 -2.11,0.91 -3.74,1.48 -4.34,1.69 -2.6,0.89 -4.63,1.37 -5.21,1.5 -3.6,0.83 -6.42,1.05 -8.3,1.19 -1.74,0.13 -3.66,0.27 -6.22,0.13 -2.05,-0.11 -3.78,-0.35 -5.07,-0.58 z"
   id="path10" />
			
			
			
			
			
			
			
			<path
   class="st1"
   d="m 214.32,168.89 c 1.37,-0.88 2.97,-2.01 4.68,-3.44 2.27,-1.9 3.82,-3.58 4.41,-4.24 2.29,-2.53 3.65,-4.68 5.21,-7.15 1.31,-2.07 2.94,-4.89 4.59,-8.39 0.71,0.76 1.73,2.04 2.47,3.88 0.65,1.63 0.84,3.08 0.88,4.06 -0.99,1.07 -2.56,2.67 -4.68,4.41 -1.06,0.88 -3.24,2.59 -10.24,6.71 -1.79,1.07 -4.29,2.5 -7.32,4.16 z"
   id="path26" />
			<g
   id="g32">
				<path
   class="st2"
   d="m 151.66,166.95 c 1.5,0.89 3.54,2.02 6.03,3.18 2.01,0.93 5.18,2.39 9.34,3.51 4.22,1.14 7.43,1.38 11.12,1.66 3.78,0.28 7.53,0.55 12.45,-0.07 3.99,-0.5 6.95,-1.34 8.94,-1.92 5.61,-1.63 9.64,-3.63 11.17,-4.41 4.42,-2.28 7.43,-4.53 8.21,-5.12 3.14,-2.38 5.26,-4.54 5.98,-5.3 1.93,-2.01 4.34,-4.87 6.62,-8.67"
   id="path28" />
				<path
   class="st2"
   d="m 184.56,175.97 c -2.32,0 -4.4,-0.16 -6.44,-0.31 -3.72,-0.28 -6.94,-0.52 -11.19,-1.67 -4.27,-1.15 -7.48,-2.64 -9.4,-3.53 -2.06,-0.96 -4.1,-2.03 -6.06,-3.2 l 0.38,-0.63 c 1.94,1.15 3.95,2.21 5.99,3.16 1.89,0.88 5.07,2.35 9.28,3.49 4.19,1.13 7.37,1.37 11.05,1.64 3.63,0.27 7.39,0.55 12.38,-0.06 4.05,-0.5 7.07,-1.38 8.88,-1.91 3.89,-1.13 7.73,-2.65 11.1,-4.39 3.94,-2.03 6.8,-4.06 8.16,-5.09 2.72,-2.07 4.73,-4 5.94,-5.26 2.49,-2.6 4.7,-5.49 6.57,-8.61 l 0.63,0.38 c -1.9,3.16 -4.15,6.1 -6.67,8.74 -1.22,1.28 -3.26,3.24 -6.02,5.34 -1.37,1.04 -4.27,3.1 -8.26,5.15 -3.41,1.76 -7.3,3.3 -11.23,4.44 -1.83,0.53 -4.89,1.42 -9,1.93 -2.25,0.29 -4.25,0.39 -6.09,0.39 z"
   id="path30" />
			</g>
			<g
   id="g38"
   transform="translate(1.03,0.3)">
				<path
   class="st2"
   d="m 130.36,135.61 c 0.22,1.31 0.66,3.19 1.59,5.3 0.37,0.83 1.28,2.75 4.77,7.15 2.1,2.64 3.15,3.97 4.68,5.47 3.38,3.33 6.51,5.14 10.15,7.24 2.14,1.24 5,2.87 9.09,4.41 4,1.51 7.19,2.17 9.09,2.56 1.97,0.4 6.59,1.25 12.62,1.32 6.15,0.08 10.77,-0.69 11.92,-0.88 3.49,-0.6 8.34,-1.74 13.77,-4.06 4.82,-2.05 8.14,-4.2 9,-4.77 3.84,-2.52 6.52,-4.97 7.86,-6.27 1.46,-1.42 3.88,-3.78 6.36,-7.42 2.15,-3.15 3.31,-5.76 4.5,-8.48 1.25,-2.85 2.75,-6.75 3.97,-11.56"
   id="path34" />
				<path
   class="st2"
   d="m 183.24,169.44 c -0.29,0 -0.59,0 -0.88,-0.01 -4.3,-0.05 -8.69,-0.51 -12.69,-1.33 -1.76,-0.36 -5.04,-1.03 -9.15,-2.58 -4.2,-1.58 -7.18,-3.3 -9.15,-4.44 -3.66,-2.11 -6.81,-3.94 -10.23,-7.3 -1.55,-1.52 -2.6,-2.85 -4.69,-5.49 -3.29,-4.15 -4.33,-6.13 -4.83,-7.25 -0.76,-1.71 -1.3,-3.52 -1.62,-5.38 l 0.73,-0.12 c 0.31,1.81 0.83,3.56 1.56,5.21 0.28,0.63 1.12,2.53 4.72,7.07 2.09,2.64 3.14,3.95 4.65,5.44 3.35,3.29 6.47,5.1 10.08,7.18 1.95,1.13 4.9,2.83 9.04,4.39 4.06,1.53 7.3,2.19 9.04,2.54 3.96,0.81 8.31,1.26 12.56,1.32 5.48,0.07 9.78,-0.52 11.85,-0.88 4.7,-0.81 9.31,-2.17 13.69,-4.04 4.29,-1.83 7.45,-3.75 8.95,-4.74 2.82,-1.85 5.45,-3.94 7.8,-6.22 1.33,-1.29 3.81,-3.68 6.31,-7.36 2.17,-3.19 3.34,-5.85 4.47,-8.42 1.62,-3.68 2.95,-7.55 3.95,-11.51 l 0.71,0.18 c -1.01,4 -2.36,7.91 -3.99,11.62 -1.14,2.6 -2.33,5.29 -4.53,8.53 -2.54,3.74 -5.06,6.17 -6.4,7.47 -2.39,2.31 -5.05,4.44 -7.91,6.31 -1.52,1 -4.72,2.94 -9.06,4.8 -4.44,1.89 -9.1,3.27 -13.85,4.09 -2.02,0.37 -6.02,0.92 -11.13,0.92 z"
   id="path36" />
			</g>
			
			<path
   class="st1"
   d="m 132.69,121.14 c -1.21,3.39 -1.62,6.12 -1.87,7.75 -0.35,2.32 -0.53,4.7 -0.53,7.07 h 0.74 c 0,-2.33 0.18,-4.68 0.53,-6.96 0.24,-1.61 0.65,-4.29 1.84,-7.61 0.29,-0.82 0.62,-1.63 0.97,-2.43 -0.08,-0.44 -0.17,-0.82 -0.27,-1.17 -0.54,1.09 -1.01,2.21 -1.41,3.35 z"
   id="path42" />
			<path
   class="st1"
   d="m 143.52,148.12 c -0.15,2.67 0.04,4.71 0.27,7.07 0.25,2.59 0.65,5.19 1.2,7.72 l 0.72,-0.16 c -0.54,-2.5 -0.94,-5.07 -1.19,-7.64 -0.22,-2.33 -0.41,-4.34 -0.26,-6.96 0.2,-3.46 0.87,-6.03 1.81,-9.4 -0.2,-0.09 -0.43,-0.2 -0.68,-0.32 -0.97,3.49 -1.66,6.11 -1.87,9.69 z"
   id="path44" />
			<path
   class="st1"
   d="m 168.55,152.35 c -0.39,5.76 -0.57,9.93 0.4,15.19 0.56,3 1.41,5.96 2.54,8.81 l 0.68,-0.27 c -1.11,-2.8 -1.95,-5.72 -2.5,-8.67 -0.96,-5.15 -0.79,-9.08 -0.4,-14.91 -0.25,-0.18 -0.49,-0.31 -0.71,-0.43 0.01,0.09 0,0.19 -0.01,0.28 z"
   id="path46" />
			<path
   d="m 191.13,106.47 -0.71,0.18 c 0.06,0.25 0.12,0.5 0.18,0.75 0.23,-0.15 0.44,-0.3 0.65,-0.45 -0.05,-0.16 -0.08,-0.32 -0.12,-0.48 z"
   id="path48" />
			<path
   class="st1"
   d="m 196.38,155.34 c -0.05,1.13 -0.07,2.56 -0.02,4.6 0.02,0.61 0.04,1.2 0.05,1.76 0.1,3.08 0.19,5.51 -0.57,8.74 -0.51,2.16 -1.3,4.27 -2.35,6.27 l 0.65,0.34 c 1.08,-2.06 1.89,-4.22 2.42,-6.44 0.78,-3.32 0.7,-5.8 0.59,-8.93 -0.02,-0.56 -0.04,-1.14 -0.05,-1.76 -0.05,-1.99 -0.04,-3.39 0.01,-4.5 -0.25,-0.05 -0.5,-0.08 -0.73,-0.08 z"
   id="path50" />
			<path
   class="st1"
   d="m 221.39,144.49 c 0.37,2.24 0.73,4.99 0.53,8.39 -0.19,3.08 -0.74,5.4 -1.18,6.8 -0.45,1.44 -1.02,2.84 -1.7,4.18 l 0.66,0.33 c 0.7,-1.37 1.29,-2.82 1.75,-4.3 0.45,-1.44 1.02,-3.82 1.21,-6.97 0.21,-3.48 -0.15,-6.28 -0.53,-8.56 -0.3,-1.81 -0.7,-3.66 -1.19,-5.61 -0.17,0.06 -0.37,0.16 -0.67,0.36 0.46,1.88 0.83,3.65 1.12,5.38 z"
   id="path52" />
			<path
   d="m 207.71,91.58 c -0.3,-0.15 -0.59,-0.31 -0.89,-0.45 l -0.32,0.66 c 0.02,0.01 0.04,0.02 0.07,0.03 0.5,-0.14 0.78,-0.19 0.78,-0.19 0.11,-0.01 0.23,-0.03 0.36,-0.05 z"
   id="path54" />
			<path
   class="st1"
   d="m 234.83,127.69 c -0.18,-1.17 -0.46,-2.95 -1.04,-5.11 0.03,0.47 0.07,0.87 0.12,1.19 0.04,0.27 0.18,1.11 -0.18,1.84 0.17,0.87 0.28,1.61 0.37,2.19 0.69,4.42 0.69,8.93 0,13.39 l 0.73,0.11 c 0.7,-4.53 0.7,-9.11 0,-13.61 z"
   id="path56" />
			<path
   class="st1"
   d="m 135.09,115.79 c -0.36,0.65 -0.69,1.32 -1.01,2 0.1,0.35 0.19,0.73 0.27,1.17 0.42,-0.96 0.88,-1.9 1.39,-2.81 z"
   id="path58" />
			<path
   class="st1"
   d="m 148.74,130.66 -0.69,-0.27 c -0.97,2.49 -1.82,5.04 -2.53,7.58 -0.05,0.16 -0.09,0.31 -0.13,0.47 0.25,0.12 0.47,0.23 0.68,0.32 0.06,-0.2 0.11,-0.39 0.16,-0.59 0.71,-2.51 1.55,-5.04 2.51,-7.51 z"
   id="path60" />
			<path
   class="fill-current text-primary"
   d="m 171.27,130.58 c 0.9,-6.72 2.06,-13.53 3.44,-20.24 l -0.72,-0.15 c -1.38,6.73 -2.54,13.55 -3.45,20.29 -1.01,7.51 -1.34,12.26 -1.97,21.59 0.22,0.12 0.46,0.25 0.71,0.43 0,-0.04 0,-0.07 0.01,-0.1 0.64,-9.5 0.96,-14.26 1.98,-21.82 z"
   id="path62" />
			<path
   class="fill-current text-primary"
   d="m 197.49,146.54 c -0.13,-3.69 -0.66,-7.55 -1.72,-15.27 -0.53,-3.87 -0.92,-6.67 -1.59,-10.48 -0.82,-4.65 -1.81,-9.31 -2.94,-13.85 -0.2,0.15 -0.42,0.31 -0.65,0.45 1.09,4.44 2.06,8.99 2.86,13.53 0.67,3.79 1.05,6.58 1.59,10.47 1.06,7.67 1.59,11.51 1.71,15.17 0.11,3.21 -0.03,4.6 -0.17,6.08 -0.08,0.79 -0.16,1.6 -0.21,2.7 0.24,0 0.48,0.03 0.73,0.08 0.05,-1.11 0.13,-1.91 0.21,-2.7 0.16,-1.5 0.3,-2.92 0.18,-6.18 z"
   id="path64" />
			<path
   class="fill-current text-primary"
   d="m 210.15,112.2 c -2.68,-4.41 -5.82,-8.57 -9.31,-12.37 l -0.54,0.5 c 3.46,3.76 6.57,7.89 9.23,12.26 4.07,6.69 6.14,12.43 7.52,16.22 1.38,3.8 2.43,7.18 3.22,10.33 0.3,-0.2 0.5,-0.31 0.67,-0.36 -0.79,-3.11 -1.84,-6.46 -3.2,-10.21 -1.39,-3.84 -3.48,-9.62 -7.59,-16.37 z"
   id="path66" />
			<path
   class="fill-current text-primary"
   d="m 233.92,123.78 c -0.05,-0.32 -0.09,-0.72 -0.12,-1.19 -0.63,-2.35 -1.62,-5.14 -3.24,-8.12 -1.41,-2.58 -3.13,-4.65 -6.56,-8.76 l -0.36,-0.44 c -3.21,-3.85 -5.75,-6.89 -9.73,-9.86 -1.94,-1.45 -4.03,-2.73 -6.19,-3.82 -0.12,0.02 -0.24,0.04 -0.36,0.06 0,0 -0.28,0.05 -0.78,0.19 2.42,1.16 4.74,2.56 6.89,4.17 3.91,2.92 6.3,5.78 9.6,9.74 l 0.36,0.44 c 3.4,4.07 5.11,6.12 6.48,8.64 2.31,4.24 3.31,8.12 3.82,10.8 0.37,-0.75 0.23,-1.59 0.19,-1.85 z"
   id="path68" />
			<path
   d="m 146.09,138.56 -0.7,-0.22 c 0.19,-0.6 0.4,-1.4 0.63,-2.23 0.47,-1.76 1,-3.76 1.64,-5.2 1.24,-2.81 2.72,-5.55 4.4,-8.13 l 0.62,0.4 c -1.65,2.55 -3.11,5.25 -4.34,8.03 -0.61,1.38 -1.14,3.35 -1.6,5.09 -0.24,0.84 -0.46,1.64 -0.65,2.26 z"
   id="path70" />
			<path
   class="fill-current text-primary"
   d="m 181.95,152.47 c -2.56,0 -5.8,-0.16 -9.52,-0.78 -6.85,-1.15 -11.89,-3.27 -13.73,-4.13 -3.81,-1.78 -7.6,-4.17 -10.94,-6.94 -1.76,-1.45 -3.46,-3.07 -4.94,-4.67 -1.64,-1.79 -3.69,-4.02 -5.61,-7.49 -0.81,-1.46 -2.32,-4.54 -3.35,-8.7 -0.67,-2.71 -1.03,-5.5 -1.07,-8.29 l 0.74,-0.01 c 0.04,2.74 0.4,5.47 1.05,8.13 1,4.08 2.48,7.09 3.28,8.52 1.88,3.39 3.89,5.58 5.51,7.35 1.45,1.58 3.13,3.17 4.86,4.6 3.29,2.72 7.02,5.09 10.78,6.84 1.82,0.85 6.79,2.94 13.55,4.08 6.07,1.02 10.85,0.78 13.43,0.66 3.5,-0.17 8.3,-0.41 14.35,-2.24 7.36,-2.22 12.55,-5.57 14.98,-7.36 5.22,-3.84 8.32,-7.84 9.99,-9.99 4.29,-5.53 7.57,-11.82 9.74,-18.69 l 0.7,0.22 c -2.2,6.96 -5.52,13.32 -9.86,18.92 -1.69,2.18 -4.84,6.23 -10.14,10.14 -2.48,1.82 -7.74,5.22 -15.21,7.47 -6.14,1.85 -10.98,2.09 -14.52,2.27 -1.04,0.02 -2.41,0.09 -4.07,0.09 z"
   id="path72" />
			<path
   class="fill-current text-primary"
   d="m 185.01,127.91 c -0.92,0 -1.71,-0.03 -2.35,-0.06 -4.88,-0.2 -8.54,-1.23 -10.5,-1.78 -3.64,-1.03 -7.17,-2.46 -10.49,-4.27 l 0.35,-0.65 c 3.28,1.78 6.76,3.2 10.34,4.21 1.93,0.55 5.54,1.56 10.33,1.75 2.25,0.09 6.45,0.26 11.54,-1.22 4.63,-1.35 7.76,-3.39 9.26,-4.37 2.44,-1.59 5.79,-3.78 8.55,-7.84 0.63,-0.94 2.23,-3.5 3.31,-7.14 0.83,-2.81 2.78,-9.37 -0.16,-16.53 -2.11,-5.11 -5.79,-8.3 -8.51,-10.07 l 0.4,-0.62 c 2.81,1.83 6.61,5.12 8.79,10.41 3.05,7.4 1.04,14.14 0.19,17.02 -1.07,3.6 -2.59,6.14 -3.4,7.34 -2.85,4.19 -6.26,6.42 -8.76,8.05 -1.53,1 -4.72,3.08 -9.46,4.46 -3.76,1.09 -7.03,1.31 -9.43,1.31 z"
   id="path74" />
			
			<path
   class="fill-current text-primary"
   d="m 207.84,59.82 c 4.69,-0.35 8.54,0.22 11.12,0.79 6.95,1.55 11.51,4.65 12.45,5.3 2.65,1.84 4.57,3.75 5.83,5.16 -2.23,-1.69 -4.26,-2.94 -5.89,-3.84 -4.37,-2.42 -8.02,-3.55 -9.2,-3.91 -2.93,-0.87 -5.23,-1.22 -5.96,-1.32 -3.24,-0.46 -6.02,-0.46 -8.08,-0.33 -0.09,-0.62 -0.18,-1.24 -0.27,-1.85 z"
   id="path78" />
			<path
   class="st1"
   d="m 150.11,84.18 c 1.16,-0.51 2.61,-1.12 4.24,-1.72 0.1,-0.04 1.28,-0.47 2.54,-0.88 0.69,-0.23 1.36,-0.43 1.41,-0.45 0.17,-0.05 0.31,-0.09 0.42,-0.13 -0.97,0.72 -2.06,1.64 -3.18,2.78 -1.09,1.12 -1.96,2.21 -2.65,3.18 -0.93,-0.92 -1.86,-1.85 -2.78,-2.78 z"
   id="path80" />
			<path
   class="st1"
   d="m 172.18,120.6 c -0.12,-0.11 -0.05,-0.24 0,-1.15 0.02,-0.27 0.03,-0.59 0.08,-1.07 0,-0.03 0.01,-0.06 0.01,-0.08 -0.21,-0.13 -0.72,-0.49 -0.97,-1.15 -0.19,-0.5 -0.33,-1.48 0.18,-1.77 0.34,-0.19 0.88,-0.02 1.32,0.35 0.51,-1.07 0.75,-1.99 0.88,-2.65 0.2,-1 0.4,-2.02 0.26,-3.35 -0.07,-0.7 -0.18,-0.96 0,-1.15 0.5,-0.52 2.55,0.14 3.18,1.5 0.08,0.17 0.33,0.72 0.18,1.41 -0.07,0.29 -0.13,0.7 -0.44,0.88 -0.35,0.21 -0.81,0.01 -1.24,-0.18 -0.48,-0.21 -0.81,-0.48 -1.02,-0.68 0.03,0.79 -0.01,1.79 -0.26,2.91 -0.13,0.57 -0.29,1.08 -0.46,1.52 0.3,-0.07 0.91,-0.18 1.59,0.07 0.36,0.13 0.87,0.31 1.06,0.79 0.21,0.52 -0.05,1.12 -0.4,1.46 -0.46,0.45 -1.09,0.42 -1.52,0.4 -0.69,-0.03 -1.21,-0.31 -1.46,-0.46 0.2,0.86 0.09,1.47 0,1.79 -0.11,0.41 -0.25,0.56 -0.4,0.63 -0.17,0.09 -0.43,0.11 -0.57,-0.02 z"
   id="path82" />
			<path
   class="st1"
   d="m 189.77,104.84 c 0.33,1.95 0.67,3.54 0.93,4.63 0.43,1.87 0.78,3.11 1.19,5.3 0.19,1 0.32,1.83 0.4,2.38 0.05,0.01 0.44,0.12 0.79,-0.13 0.37,-0.26 0.4,-0.68 0.4,-0.73 -0.95,-4.22 -1.9,-8.43 -2.85,-12.65 -0.29,0.41 -0.58,0.8 -0.86,1.2 z"
   id="path84" />
			<path
   class="st1"
   d="m 199.3,98.95 c 1.38,1.65 2.82,3.52 4.24,5.63 0.96,1.44 1.82,2.83 2.58,4.17 0.38,-0.02 0.75,-0.04 1.13,-0.07 -0.78,-1.32 -1.61,-2.67 -2.52,-4.04 -1.56,-2.38 -3.15,-4.56 -4.7,-6.55 -0.24,0.28 -0.49,0.57 -0.73,0.86 z"
   id="path86" />
			<path
   class="st1"
   d="m 204.33,91.47 c 1.71,0.68 3.69,1.63 5.76,2.98 1.15,0.75 2.16,1.51 3.05,2.25 0.02,-0.4 0.04,-0.79 0.07,-1.19 0.58,0.4 0.99,0.78 1.26,1.06 0.31,0.32 0.5,0.57 0.73,0.53 0.26,-0.04 0.42,-0.44 0.46,-0.66 0.14,-0.68 -0.3,-1.42 -0.86,-1.79 -0.18,-0.11 -0.44,-0.29 -0.79,-0.26 -0.73,0.05 -1.11,0.89 -1.13,0.93 -1.53,-1.28 -3.35,-2.61 -5.46,-3.87 -0.95,-0.57 -1.88,-1.07 -2.78,-1.52 -0.11,0.5 -0.21,1.02 -0.31,1.54 z"
   id="path88" />
			<path
   class="st1"
   d="m 207.18,81.6 c 0.56,1.26 2.15,1.16 3.58,2.12 0.61,0.41 1.18,1.4 2.32,3.38 1.05,1.83 1.64,2.85 2.18,4.37 0.43,1.19 0.91,2.94 1.06,5.16 0.46,-2.35 0.18,-4.18 -0.07,-5.23 -0.44,-1.84 -1.24,-3.17 -2.18,-4.77 -0.77,-1.29 -1.51,-2.29 -2.05,-2.98 2.39,0.87 4.31,1.79 5.69,2.52 2.17,1.15 5.02,2.67 7.95,5.5 1.16,1.12 2.02,2.14 2.58,2.85 0.4,0.66 0.94,1.62 1.46,2.83 0.18,0.42 0.76,1.79 1.5,4.86 0.33,1.37 0.72,3.18 1.06,5.34 0.4,-0.65 0.79,-1.29 1.19,-1.94 -0.88,-2.65 -1.53,-4.73 -1.94,-6.09 -0.59,-1.92 -0.92,-3.1 -1.81,-4.63 -0.75,-1.28 -1.5,-2.14 -1.94,-2.65 -0.76,-0.86 -1.87,-1.96 -4.5,-3.8 -1.27,-0.88 -3.05,-2.11 -5.78,-3.53 -2.45,-1.28 -5.96,-2.86 -10.46,-4.15 -0.02,0.19 0.01,0.5 0.16,0.84 z"
   id="path90" />
			<path
   class="fill-current text-primary"
   d="m 209.17,64.38 c 1.91,0.15 4.56,0.46 7.68,1.13 3.44,0.74 6.82,1.46 10.79,3.51 2.03,1.04 5.5,2.87 8.81,6.62 2.52,2.86 3.96,5.71 4.77,7.68 2.51,6.12 2.07,11.48 1.85,13.84 -0.37,4.01 -1.4,6.8 -2.78,10.46 -1.8,4.77 -4.14,10.98 -9.53,17.35 -4.11,4.85 -8.11,7.58 -13.9,11.52 -5.29,3.6 -8.97,5.33 -10.06,5.83 -4.11,1.88 -7.79,3.01 -10.59,3.71 2.56,-1.09 5.65,-2.58 9,-4.63 4.52,-2.76 7.77,-5.46 9.53,-7.02 2.73,-2.41 6.67,-5.93 10.46,-11.65 1.9,-2.86 4.81,-7.88 6.75,-14.7 1.33,-4.68 2.48,-8.71 1.85,-14.17 -0.76,-6.67 -3.69,-11.27 -4.68,-12.71 -2.76,-4.06 -5.93,-6.38 -7.33,-7.33 -4.96,-3.34 -9.82,-4.22 -12.36,-4.5 -0.09,-1.65 -0.18,-3.29 -0.26,-4.94 z"
   id="path92" />
			<path
   class="st3"
   d="m 123.27,87.67 c -0.29,0.34 -0.73,0.96 -0.97,1.85 -0.11,0.39 -0.31,1.36 0,2.47 0.17,0.59 0.42,1.04 0.62,1.32 6.86,12.05 13.71,24.1 20.57,36.15 0.1,0.18 0.31,0.97 0.99,1.66 0.79,0.8 1.74,1.05 2.05,1.13 1.1,0.27 2.02,0.06 2.45,-0.07 5.65,-3.22 11.3,-6.44 16.95,-9.67 0.6,-0.22 2.1,-0.86 3.24,-2.45 1.46,-2.03 1.31,-4.2 1.26,-4.77 -2.63,-4.63 -5.25,-9.27 -7.88,-13.9 -3.64,-6.73 -7.28,-13.46 -10.92,-20.19 -0.24,-1.09 -0.79,-2.7 -2.12,-4.11 -0.61,-0.64 -1.3,-1.38 -2.45,-1.66 -1.82,-0.44 -3.37,0.62 -3.71,0.86 -6.69,3.8 -13.39,7.59 -20.08,11.38 z"
   id="path94" />
			<path
   class="st1"
   d="m 123.27,89.52 c 0.28,-0.4 0.74,-0.97 1.41,-1.54 1.2,-1.03 2.39,-1.46 2.74,-1.59 0.32,-0.12 -0.08,0.01 7.68,-4.41 2.6,-1.48 5.75,-3.27 9.36,-5.3 0.43,-0.09 1.01,-0.15 1.68,-0.04 0.69,0.11 1.19,0.35 1.54,0.53 0.28,0.14 0.82,0.41 1.37,0.93 0.72,0.67 1.11,1.42 1.32,1.94 6.47,11.51 12.93,23.03 19.4,34.54 0.11,0.55 0.17,0.97 0.18,1.15 0,0.08 0.01,0.16 0.01,0.16 0,0 0.01,0.18 0.01,0.35 0,0.18 -0.12,1.01 -0.4,2.12 0.08,-0.53 0.13,-1.35 -0.09,-2.3 -0.15,-0.64 -0.37,-1.12 -0.62,-1.59 -0.43,-0.83 -1.15,-2.1 -2.3,-3.66 -5.97,-10.59 -11.95,-21.19 -17.92,-31.78 -0.46,-0.51 -0.93,-0.81 -1.26,-0.99 -0.35,-0.2 -0.84,-0.46 -1.52,-0.53 -0.13,-0.01 -0.65,-0.06 -1.39,0.13 -1,0.26 -1.67,0.77 -1.79,0.86 -1.05,0.77 -8.56,5 -19.41,11.02 z"
   id="path96" />
			<path
   class="st4"
   d="m 163.44,108.59 c -0.37,-2.09 -4.56,-17.46 -10.59,-39.29 -0.21,-0.85 -0.15,-1.54 -0.09,-1.94 0.08,-0.47 0.31,-1.89 1.52,-2.71 0.53,-0.36 1.06,-0.48 1.39,-0.53 6.86,-1.85 13.73,-3.71 20.59,-5.56 0.44,-0.16 1.17,-0.34 2.05,-0.26 0.37,0.03 1.27,0.12 2.18,0.73 0.3,0.2 0.76,0.52 1.13,1.13 0.4,0.68 0.46,1.33 0.46,1.66 3.42,12.54 6.84,25.07 10.26,37.61 0.17,0.46 0.36,1.14 0.4,1.99 0.02,0.44 0.07,1.66 -0.46,2.65 -0.69,1.28 -2.12,1.76 -2.85,1.99 -2.61,0.83 -10.28,3 -20.72,5.69 -0.37,0.13 -1.06,0.31 -1.92,0.2 -0.28,-0.04 -1.44,-0.22 -2.32,-1.13 -0.82,-0.87 -0.98,-1.94 -1.03,-2.23 z"
   id="path98" />
			<path
   class="st1"
   d="m 155.49,66 c 6.92,-1.91 13.83,-3.83 20.75,-5.74 0.26,-0.04 0.62,-0.09 1.06,-0.09 0.55,0 1.03,0 1.59,0.22 0.22,0.09 0.99,0.4 1.5,1.24 0.26,0.43 0.36,0.85 0.4,1.1 3.39,12.56 6.78,25.12 10.17,37.67 0,0.01 0.1,0.57 0.1,0.57 0.01,0.04 0.23,1.31 0.23,1.35 0.15,-0.4 0.32,-0.97 0.35,-1.68 0.05,-1.18 -0.3,-2.09 -0.53,-2.56 -3.22,-11.99 -6.44,-23.98 -9.67,-35.97 -0.11,-0.35 -0.36,-0.93 -0.88,-1.5 -0.22,-0.24 -0.78,-0.82 -1.72,-1.1 -0.94,-0.28 -1.74,-0.1 -2.07,0 -6.33,1.72 -12.65,3.44 -18.98,5.16 -0.3,0.05 -0.75,0.17 -1.24,0.44 -0.52,0.29 -0.86,0.65 -1.06,0.89 z"
   id="path100" />
			<g
   id="g108">
				<path
   class="st1"
   d="m 146.4,87.73 c 0.33,-0.19 0.66,-0.38 0.99,-0.57 0.05,-0.07 0.23,-0.33 0.2,-0.7 -0.02,-0.26 -0.14,-0.45 -0.2,-0.53 -0.92,-1.53 -1.83,-3.07 -2.75,-4.6 -0.02,-0.1 -0.08,-0.26 -0.23,-0.4 -0.23,-0.21 -0.52,-0.2 -0.73,-0.2 -0.32,0.01 -0.58,0.12 -0.73,0.2 -0.15,0.09 -0.29,0.18 -0.44,0.26 z"
   id="path102" />
				<path
   class="st1"
   d="m 144.37,88.91 c 0.46,-0.27 0.93,-0.54 1.39,-0.81 l -3.89,-6.52 c -0.46,0.27 -0.92,0.55 -1.39,0.82 z"
   id="path104" />
				<path
   class="st1"
   d="m 139.86,82.78 c -0.3,0.18 -0.61,0.36 -0.91,0.54 -0.06,0.1 -0.2,0.35 -0.2,0.7 0,0.4 0.2,0.67 0.26,0.76 0.9,1.49 1.81,2.98 2.71,4.47 0.02,0.05 0.13,0.39 0.5,0.53 0.39,0.15 0.72,-0.04 0.76,-0.07 0.25,-0.14 0.5,-0.29 0.75,-0.43 z"
   id="path106" />
			</g>
			<g
   id="g116">
				<path
   class="st1"
   d="m 176.73,70.2 c 0.37,-0.09 0.74,-0.18 1.11,-0.26 0.07,-0.05 0.31,-0.25 0.39,-0.61 0.06,-0.26 -0.01,-0.47 -0.04,-0.56 -0.44,-1.73 -0.87,-3.46 -1.31,-5.2 0,-0.1 0,-0.28 -0.11,-0.45 -0.16,-0.26 -0.44,-0.34 -0.64,-0.4 -0.31,-0.09 -0.59,-0.06 -0.75,-0.02 -0.17,0.04 -0.33,0.08 -0.5,0.13 z"
   id="path110" />
				<path
   class="st1"
   d="m 174.45,70.74 c 0.52,-0.12 1.05,-0.25 1.57,-0.37 L 174.17,63 c -0.52,0.13 -1.04,0.26 -1.56,0.39 z"
   id="path112" />
				<path
   class="st1"
   d="m 171.89,63.57 c -0.34,0.09 -0.69,0.17 -1.03,0.26 -0.09,0.08 -0.29,0.28 -0.39,0.61 -0.11,0.38 0,0.7 0.03,0.81 0.44,1.69 0.88,3.37 1.32,5.06 0,0.05 0.02,0.41 0.32,0.65 0.33,0.26 0.71,0.17 0.75,0.16 0.28,-0.07 0.56,-0.13 0.84,-0.2 z"
   id="path114" />
			</g>
			<path
   class="st5"
   d="m 180.56,92.52 c 2.82,-19.12 4.89,-33 5.12,-34.96 0.03,-0.28 0.13,-1.21 0.79,-2.03 0.78,-0.97 1.9,-1.25 2.21,-1.32 1.03,-0.24 1.89,-0.04 2.3,0.09 5.94,0.97 11.89,1.94 17.83,2.91 0.41,-0.01 1.19,0.03 2.03,0.44 0.88,0.43 1.37,1.05 1.59,1.32 0.45,0.57 0.67,1.13 0.79,1.5 -1.85,12.48 -3.71,24.95 -5.56,37.43 -0.07,0.34 -0.22,0.88 -0.62,1.41 -0.61,0.83 -1.43,1.13 -1.94,1.32 -1.17,0.44 -2.23,0.36 -2.83,0.26 -6.18,-0.94 -12.36,-1.88 -18.54,-2.83 -0.47,-0.15 -1.21,-0.44 -1.94,-1.06 -0.41,-0.34 -1,-0.84 -1.32,-1.68 -0.49,-1.23 -0.06,-2.42 0.09,-2.8 z"
   id="path118" />
			<g
   id="g126">
				<path
   class="st1"
   d="m 205.74,66.77 c 0.33,0.04 0.67,0.08 1,0.11 0.08,-0.02 0.34,-0.12 0.51,-0.39 0.12,-0.2 0.14,-0.39 0.14,-0.48 0.16,-1.58 0.32,-3.15 0.47,-4.73 0.03,-0.08 0.08,-0.23 0.04,-0.41 -0.05,-0.27 -0.26,-0.42 -0.41,-0.53 -0.23,-0.17 -0.47,-0.22 -0.62,-0.24 -0.15,-0.02 -0.3,-0.03 -0.45,-0.05 z"
   id="path120" />
				<path
   class="st1"
   d="m 203.68,66.53 c 0.47,0.05 0.95,0.11 1.42,0.16 l 0.68,-6.7 c -0.47,-0.05 -0.95,-0.1 -1.42,-0.14 z"
   id="path122" />
				<path
   class="st1"
   d="m 203.7,59.79 c -0.31,-0.03 -0.62,-0.06 -0.94,-0.1 -0.1,0.04 -0.33,0.14 -0.51,0.39 -0.21,0.29 -0.22,0.58 -0.21,0.68 -0.14,1.54 -0.28,3.08 -0.43,4.61 -0.01,0.04 -0.11,0.34 0.07,0.64 0.19,0.31 0.54,0.35 0.58,0.35 0.25,0.03 0.51,0.06 0.76,0.09 z"
   id="path124" />
			</g>
			<path
   class="st1"
   d="m 190.16,55.71 c 6.25,1.1 12.49,2.21 18.74,3.31 0.24,0.03 0.6,0.11 0.99,0.33 0.63,0.35 0.94,0.85 1.06,1.06 0.09,0.15 0.26,0.51 0.33,0.99 0.08,0.6 -0.05,1.08 -0.13,1.32 -1.77,11.33 -3.53,22.66 -5.3,33.99 0.01,0.21 0,0.53 -0.13,0.88 -0.26,0.71 -0.82,1.08 -1.02,1.19 0.26,-0.09 0.93,-0.36 1.41,-1.07 0.28,-0.41 0.38,-0.81 0.43,-1.06 1.78,-11.22 3.57,-22.45 5.35,-33.67 0.1,-0.32 0.35,-1.22 0,-2.25 -0.29,-0.86 -0.85,-1.36 -1.06,-1.54 -0.45,-0.39 -0.9,-0.6 -1.19,-0.71 -5.87,-0.99 -11.74,-1.97 -17.61,-2.96 -0.62,0.07 -1.24,0.13 -1.87,0.19 z"
   id="path128" />
			<g
   id="g162">
				<path
   class="st1"
   d="m 136.54,88.25 c -0.9,0.54 -1.6,0.5 -1.95,-0.08 -0.31,-0.52 -0.03,-1.16 0.84,-1.69 0.89,-0.53 1.61,-0.44 1.93,0.1 0.33,0.55 0.02,1.17 -0.82,1.67 z m -0.91,-1.42 c -0.69,0.41 -0.96,0.86 -0.76,1.19 0.22,0.37 0.75,0.29 1.43,-0.12 0.65,-0.39 0.98,-0.82 0.76,-1.19 -0.18,-0.31 -0.7,-0.31 -1.43,0.12 z"
   id="path130" />
				<path
   class="st1"
   d="m 137.79,90.35 c -0.9,0.54 -1.6,0.5 -1.95,-0.08 -0.31,-0.52 -0.03,-1.16 0.84,-1.69 0.89,-0.53 1.61,-0.44 1.93,0.1 0.33,0.55 0.03,1.16 -0.82,1.67 z m -0.9,-1.42 c -0.69,0.41 -0.96,0.86 -0.76,1.19 0.22,0.37 0.75,0.29 1.43,-0.12 0.65,-0.39 0.98,-0.82 0.76,-1.19 -0.19,-0.31 -0.71,-0.31 -1.43,0.12 z"
   id="path132" />
				<path
   class="st1"
   d="m 139.04,92.44 c -0.9,0.54 -1.6,0.5 -1.95,-0.08 -0.31,-0.52 -0.03,-1.16 0.84,-1.69 0.89,-0.53 1.61,-0.44 1.93,0.1 0.34,0.55 0.03,1.17 -0.82,1.67 z m -0.9,-1.41 c -0.69,0.41 -0.96,0.86 -0.76,1.19 0.22,0.37 0.75,0.29 1.43,-0.12 0.65,-0.39 0.98,-0.82 0.76,-1.19 -0.19,-0.32 -0.71,-0.32 -1.43,0.12 z"
   id="path134" />
				<path
   class="st1"
   d="m 140.3,94.54 c -0.9,0.54 -1.6,0.5 -1.95,-0.08 -0.31,-0.52 -0.03,-1.16 0.84,-1.69 0.89,-0.53 1.61,-0.44 1.93,0.1 0.33,0.55 0.02,1.16 -0.82,1.67 z m -0.91,-1.42 c -0.69,0.41 -0.96,0.86 -0.76,1.19 0.22,0.37 0.75,0.29 1.43,-0.12 0.65,-0.39 0.98,-0.82 0.76,-1.19 -0.18,-0.31 -0.7,-0.31 -1.43,0.12 z"
   id="path136" />
				<path
   class="st1"
   d="m 142.07,97.5 c -0.9,0.54 -1.6,0.5 -1.95,-0.08 -0.31,-0.52 -0.03,-1.16 0.84,-1.69 0.89,-0.53 1.61,-0.44 1.93,0.1 0.33,0.55 0.03,1.17 -0.82,1.67 z m -0.9,-1.42 c -0.69,0.41 -0.96,0.86 -0.76,1.19 0.22,0.37 0.75,0.29 1.43,-0.12 0.65,-0.39 0.98,-0.82 0.76,-1.19 -0.19,-0.31 -0.71,-0.31 -1.43,0.12 z"
   id="path138" />
				<path
   class="st1"
   d="m 143.32,99.6 c -0.9,0.54 -1.6,0.5 -1.95,-0.08 -0.31,-0.52 -0.03,-1.16 0.84,-1.69 0.89,-0.53 1.61,-0.44 1.93,0.1 0.34,0.55 0.03,1.16 -0.82,1.67 z m -0.9,-1.42 c -0.69,0.41 -0.96,0.86 -0.76,1.19 0.22,0.37 0.75,0.29 1.43,-0.12 0.65,-0.39 0.98,-0.82 0.76,-1.19 -0.18,-0.31 -0.71,-0.31 -1.43,0.12 z"
   id="path140" />
				<path
   class="st1"
   d="m 144.58,101.69 c -0.9,0.54 -1.6,0.5 -1.95,-0.08 -0.31,-0.52 -0.04,-1.16 0.84,-1.69 0.89,-0.53 1.61,-0.44 1.93,0.1 0.33,0.55 0.02,1.17 -0.82,1.67 z m -0.91,-1.41 c -0.69,0.41 -0.96,0.86 -0.76,1.19 0.22,0.37 0.75,0.29 1.43,-0.12 0.65,-0.39 0.98,-0.82 0.76,-1.19 -0.18,-0.32 -0.7,-0.32 -1.43,0.12 z"
   id="path142" />
				<path
   class="st1"
   d="m 145.83,103.79 c -0.9,0.54 -1.6,0.5 -1.95,-0.09 -0.31,-0.52 -0.03,-1.16 0.84,-1.69 0.89,-0.53 1.61,-0.44 1.93,0.1 0.34,0.56 0.03,1.18 -0.82,1.68 z m -0.9,-1.42 c -0.69,0.41 -0.96,0.86 -0.76,1.19 0.22,0.37 0.75,0.29 1.43,-0.12 0.65,-0.39 0.98,-0.82 0.76,-1.19 -0.19,-0.31 -0.71,-0.31 -1.43,0.12 z"
   id="path144" />
				<path
   class="st1"
   d="m 147.6,106.75 c -0.9,0.54 -1.6,0.5 -1.95,-0.09 -0.31,-0.52 -0.03,-1.16 0.84,-1.69 0.89,-0.53 1.61,-0.44 1.93,0.1 0.34,0.56 0.03,1.18 -0.82,1.68 z m -0.9,-1.42 c -0.69,0.41 -0.96,0.86 -0.76,1.19 0.22,0.37 0.75,0.29 1.43,-0.12 0.65,-0.39 0.98,-0.82 0.76,-1.19 -0.19,-0.31 -0.71,-0.31 -1.43,0.12 z"
   id="path146" />
				<path
   class="st1"
   d="m 148.86,108.85 c -0.9,0.54 -1.6,0.5 -1.95,-0.09 -0.31,-0.52 -0.03,-1.16 0.84,-1.69 0.89,-0.53 1.61,-0.44 1.93,0.1 0.33,0.56 0.02,1.17 -0.82,1.68 z m -0.91,-1.42 c -0.69,0.41 -0.96,0.86 -0.76,1.19 0.22,0.37 0.75,0.29 1.43,-0.12 0.65,-0.39 0.98,-0.82 0.76,-1.19 -0.18,-0.31 -0.7,-0.31 -1.43,0.12 z"
   id="path148" />
				<path
   class="st1"
   d="m 150.11,110.95 c -0.9,0.54 -1.6,0.5 -1.95,-0.09 -0.31,-0.52 -0.03,-1.16 0.84,-1.69 0.89,-0.53 1.61,-0.44 1.93,0.1 0.34,0.55 0.03,1.17 -0.82,1.68 z m -0.9,-1.42 c -0.69,0.41 -0.96,0.86 -0.76,1.19 0.22,0.37 0.75,0.29 1.43,-0.12 0.65,-0.39 0.98,-0.82 0.76,-1.19 -0.19,-0.32 -0.71,-0.32 -1.43,0.12 z"
   id="path150" />
				<path
   class="st1"
   d="m 151.37,113.04 c -0.9,0.54 -1.6,0.5 -1.95,-0.08 -0.31,-0.52 -0.03,-1.16 0.84,-1.7 0.89,-0.53 1.61,-0.44 1.93,0.1 0.33,0.56 0.02,1.18 -0.82,1.68 z m -0.91,-1.42 c -0.69,0.41 -0.96,0.86 -0.76,1.19 0.22,0.37 0.75,0.29 1.43,-0.12 0.65,-0.39 0.98,-0.82 0.76,-1.19 -0.18,-0.31 -0.7,-0.31 -1.43,0.12 z"
   id="path152" />
				<path
   class="st1"
   d="m 153.14,116 c -0.9,0.54 -1.6,0.5 -1.95,-0.09 -0.31,-0.52 -0.03,-1.16 0.84,-1.69 0.89,-0.53 1.61,-0.44 1.93,0.1 0.33,0.56 0.02,1.18 -0.82,1.68 z m -0.91,-1.41 c -0.69,0.41 -0.96,0.86 -0.76,1.19 0.22,0.37 0.75,0.29 1.43,-0.12 0.65,-0.39 0.98,-0.82 0.76,-1.19 -0.18,-0.32 -0.7,-0.32 -1.43,0.12 z"
   id="path154" />
				<path
   class="st1"
   d="m 154.39,118.1 c -0.9,0.54 -1.6,0.5 -1.95,-0.08 -0.31,-0.52 -0.04,-1.16 0.84,-1.7 0.89,-0.53 1.61,-0.44 1.93,0.1 0.34,0.56 0.03,1.17 -0.82,1.68 z m -0.9,-1.42 c -0.69,0.41 -0.96,0.86 -0.76,1.19 0.22,0.37 0.75,0.29 1.43,-0.12 0.65,-0.39 0.98,-0.82 0.76,-1.19 -0.19,-0.31 -0.71,-0.31 -1.43,0.12 z"
   id="path156" />
				<path
   class="st1"
   d="m 155.65,120.2 c -0.9,0.54 -1.6,0.5 -1.95,-0.08 -0.31,-0.52 -0.03,-1.16 0.84,-1.7 0.89,-0.53 1.61,-0.44 1.93,0.1 0.33,0.55 0.02,1.17 -0.82,1.68 z m -0.91,-1.42 c -0.69,0.41 -0.96,0.86 -0.76,1.19 0.22,0.37 0.75,0.29 1.43,-0.12 0.65,-0.39 0.98,-0.82 0.76,-1.19 -0.18,-0.32 -0.71,-0.32 -1.43,0.12 z"
   id="path158" />
				<path
   class="st1"
   d="m 156.9,122.29 c -0.9,0.54 -1.6,0.5 -1.95,-0.08 -0.31,-0.52 -0.03,-1.16 0.84,-1.7 0.89,-0.53 1.61,-0.44 1.93,0.1 0.33,0.56 0.02,1.18 -0.82,1.68 z m -0.9,-1.42 c -0.69,0.41 -0.96,0.86 -0.76,1.19 0.22,0.37 0.75,0.29 1.43,-0.12 0.65,-0.39 0.98,-0.82 0.76,-1.19 -0.19,-0.31 -0.71,-0.31 -1.43,0.12 z"
   id="path160" />
			</g>
			<g
   id="g196">
				<path
   class="st1"
   d="m 167.35,67.4 c -0.97,0.27 -1.61,0.06 -1.78,-0.57 -0.16,-0.56 0.26,-1.08 1.2,-1.36 0.96,-0.27 1.6,-0.01 1.76,0.57 0.17,0.61 -0.27,1.1 -1.18,1.36 z m -0.48,-1.54 c -0.74,0.21 -1.1,0.56 -1,0.91 0.11,0.39 0.62,0.45 1.35,0.25 0.7,-0.2 1.11,-0.51 1,-0.91 -0.09,-0.34 -0.57,-0.47 -1.35,-0.25 z"
   id="path164" />
				<path
   class="st1"
   d="m 167.98,69.65 c -0.97,0.27 -1.61,0.06 -1.78,-0.57 -0.16,-0.56 0.26,-1.08 1.2,-1.36 0.96,-0.27 1.6,-0.01 1.76,0.57 0.17,0.61 -0.27,1.1 -1.18,1.36 z m -0.48,-1.54 c -0.74,0.21 -1.1,0.56 -1,0.91 0.11,0.39 0.63,0.45 1.35,0.25 0.7,-0.2 1.11,-0.51 1,-0.91 -0.09,-0.34 -0.57,-0.47 -1.35,-0.25 z"
   id="path166" />
				<path
   class="st1"
   d="m 168.62,71.9 c -0.97,0.27 -1.61,0.06 -1.78,-0.57 -0.16,-0.56 0.26,-1.08 1.2,-1.36 0.96,-0.27 1.6,-0.01 1.76,0.57 0.16,0.61 -0.28,1.1 -1.18,1.36 z m -0.48,-1.54 c -0.74,0.21 -1.1,0.56 -1,0.91 0.11,0.4 0.62,0.45 1.35,0.25 0.7,-0.2 1.11,-0.51 1,-0.91 -0.1,-0.34 -0.58,-0.47 -1.35,-0.25 z"
   id="path168" />
				<path
   class="st1"
   d="m 169.25,74.15 c -0.97,0.27 -1.61,0.06 -1.78,-0.57 -0.16,-0.56 0.26,-1.08 1.2,-1.36 0.96,-0.27 1.6,-0.01 1.76,0.57 0.17,0.61 -0.27,1.1 -1.18,1.36 z m -0.48,-1.54 c -0.74,0.21 -1.1,0.56 -1,0.91 0.11,0.39 0.62,0.45 1.35,0.25 0.7,-0.2 1.11,-0.51 1,-0.91 -0.09,-0.34 -0.57,-0.47 -1.35,-0.25 z"
   id="path170" />
				<path
   class="st1"
   d="m 170.15,77.33 c -0.97,0.27 -1.61,0.06 -1.78,-0.57 -0.16,-0.56 0.26,-1.08 1.2,-1.36 0.96,-0.27 1.6,-0.01 1.76,0.57 0.16,0.61 -0.28,1.1 -1.18,1.36 z m -0.48,-1.54 c -0.74,0.21 -1.1,0.56 -1,0.91 0.11,0.39 0.62,0.45 1.35,0.25 0.7,-0.2 1.11,-0.51 1,-0.91 -0.1,-0.34 -0.58,-0.47 -1.35,-0.25 z"
   id="path172" />
				<path
   class="st1"
   d="m 170.78,79.58 c -0.97,0.27 -1.61,0.06 -1.78,-0.57 -0.16,-0.56 0.26,-1.08 1.2,-1.36 0.96,-0.27 1.6,-0.01 1.76,0.57 0.17,0.61 -0.27,1.1 -1.18,1.36 z m -0.48,-1.54 c -0.74,0.21 -1.1,0.56 -1,0.91 0.11,0.4 0.62,0.45 1.35,0.25 0.7,-0.2 1.11,-0.51 1,-0.91 -0.09,-0.34 -0.57,-0.47 -1.35,-0.25 z"
   id="path174" />
				<path
   class="st1"
   d="m 171.41,81.83 c -0.97,0.27 -1.61,0.06 -1.78,-0.57 -0.16,-0.56 0.26,-1.08 1.2,-1.36 0.96,-0.27 1.6,-0.01 1.76,0.57 0.17,0.61 -0.27,1.1 -1.18,1.36 z m -0.48,-1.54 c -0.74,0.21 -1.1,0.56 -1,0.91 0.11,0.39 0.63,0.45 1.35,0.25 0.7,-0.2 1.11,-0.51 1,-0.91 -0.09,-0.34 -0.57,-0.47 -1.35,-0.25 z"
   id="path176" />
				<path
   class="st1"
   d="m 172.05,84.08 c -0.97,0.27 -1.61,0.06 -1.78,-0.57 -0.16,-0.56 0.26,-1.08 1.2,-1.36 0.96,-0.27 1.6,-0.01 1.76,0.57 0.16,0.61 -0.27,1.1 -1.18,1.36 z m -0.48,-1.54 c -0.74,0.21 -1.1,0.56 -1,0.91 0.11,0.39 0.62,0.45 1.35,0.25 0.7,-0.2 1.11,-0.51 1,-0.91 -0.09,-0.34 -0.58,-0.47 -1.35,-0.25 z"
   id="path178" />
				<path
   class="st1"
   d="m 172.94,87.26 c -0.97,0.27 -1.61,0.06 -1.78,-0.57 -0.16,-0.56 0.26,-1.08 1.2,-1.36 0.96,-0.27 1.6,-0.01 1.76,0.57 0.17,0.61 -0.27,1.1 -1.18,1.36 z m -0.48,-1.54 c -0.74,0.21 -1.1,0.56 -1,0.91 0.11,0.39 0.63,0.45 1.35,0.25 0.7,-0.2 1.11,-0.51 1,-0.91 -0.09,-0.34 -0.57,-0.47 -1.35,-0.25 z"
   id="path180" />
				<path
   class="st1"
   d="m 173.58,89.51 c -0.97,0.27 -1.61,0.06 -1.78,-0.57 -0.16,-0.56 0.26,-1.08 1.2,-1.36 0.96,-0.27 1.6,-0.01 1.76,0.57 0.16,0.61 -0.28,1.1 -1.18,1.36 z m -0.48,-1.54 c -0.74,0.21 -1.1,0.56 -1,0.91 0.11,0.4 0.62,0.45 1.35,0.25 0.7,-0.2 1.11,-0.51 1,-0.91 -0.09,-0.34 -0.58,-0.47 -1.35,-0.25 z"
   id="path182" />
				<path
   class="st1"
   d="m 174.21,91.75 c -0.97,0.27 -1.61,0.06 -1.78,-0.57 -0.16,-0.56 0.26,-1.08 1.2,-1.36 0.96,-0.27 1.6,-0.01 1.76,0.57 0.17,0.62 -0.27,1.11 -1.18,1.36 z m -0.48,-1.53 c -0.74,0.21 -1.1,0.56 -1,0.91 0.11,0.39 0.63,0.45 1.35,0.25 0.7,-0.2 1.11,-0.51 1,-0.91 -0.09,-0.34 -0.57,-0.47 -1.35,-0.25 z"
   id="path184" />
				<path
   class="st1"
   d="m 174.84,94.01 c -0.97,0.27 -1.61,0.06 -1.78,-0.57 -0.16,-0.56 0.26,-1.08 1.2,-1.36 0.96,-0.27 1.6,-0.01 1.76,0.57 0.17,0.61 -0.27,1.1 -1.18,1.36 z m -0.48,-1.54 c -0.74,0.21 -1.1,0.56 -1,0.91 0.11,0.39 0.63,0.45 1.35,0.25 0.7,-0.2 1.11,-0.51 1,-0.91 -0.09,-0.34 -0.57,-0.47 -1.35,-0.25 z"
   id="path186" />
				<path
   class="st1"
   d="m 175.74,97.18 c -0.97,0.27 -1.61,0.06 -1.78,-0.57 -0.16,-0.56 0.26,-1.08 1.2,-1.36 0.96,-0.27 1.6,-0.01 1.76,0.57 0.17,0.62 -0.27,1.11 -1.18,1.36 z m -0.48,-1.53 c -0.74,0.21 -1.1,0.56 -1,0.91 0.11,0.39 0.63,0.45 1.35,0.25 0.7,-0.2 1.11,-0.51 1,-0.91 -0.09,-0.34 -0.57,-0.47 -1.35,-0.25 z"
   id="path188" />
				<path
   class="st1"
   d="m 176.37,99.43 c -0.97,0.27 -1.61,0.06 -1.78,-0.57 -0.16,-0.56 0.26,-1.08 1.2,-1.36 0.96,-0.27 1.6,-0.01 1.76,0.57 0.17,0.61 -0.27,1.11 -1.18,1.36 z m -0.48,-1.53 c -0.74,0.21 -1.1,0.56 -1,0.91 0.11,0.4 0.63,0.45 1.35,0.25 0.7,-0.2 1.11,-0.51 1,-0.91 -0.09,-0.34 -0.57,-0.47 -1.35,-0.25 z"
   id="path190" />
				<path
   class="st1"
   d="m 177.01,101.68 c -0.97,0.27 -1.61,0.06 -1.78,-0.57 -0.16,-0.56 0.26,-1.08 1.2,-1.36 0.96,-0.27 1.6,-0.01 1.76,0.57 0.16,0.61 -0.27,1.11 -1.18,1.36 z m -0.48,-1.53 c -0.74,0.21 -1.1,0.56 -1,0.91 0.11,0.39 0.62,0.45 1.35,0.25 0.7,-0.2 1.11,-0.51 1,-0.91 -0.09,-0.34 -0.58,-0.47 -1.35,-0.25 z"
   id="path192" />
				<path
   class="st1"
   d="m 177.64,103.93 c -0.97,0.27 -1.61,0.06 -1.78,-0.57 -0.16,-0.56 0.26,-1.08 1.2,-1.36 0.96,-0.27 1.6,-0.01 1.76,0.57 0.17,0.61 -0.27,1.11 -1.18,1.36 z m -0.48,-1.53 c -0.74,0.21 -1.1,0.56 -1,0.91 0.11,0.39 0.63,0.45 1.35,0.25 0.7,-0.2 1.11,-0.51 1,-0.91 -0.09,-0.34 -0.57,-0.47 -1.35,-0.25 z"
   id="path194" />
			</g>
			<g
   id="g230">
				<path
   class="st1"
   d="m 199.05,61.84 c -0.88,-0.15 -1.31,-0.56 -1.21,-1.13 0.09,-0.5 0.62,-0.77 1.47,-0.63 0.87,0.15 1.28,0.6 1.19,1.13 -0.09,0.54 -0.63,0.77 -1.45,0.63 z m 0.2,-1.41 c -0.67,-0.11 -1.09,0.03 -1.14,0.35 -0.06,0.36 0.33,0.6 0.99,0.71 0.64,0.11 1.08,0.02 1.14,-0.35 0.05,-0.31 -0.29,-0.59 -0.99,-0.71 z"
   id="path198" />
				<path
   class="st1"
   d="m 198.7,63.88 c -0.88,-0.15 -1.31,-0.56 -1.21,-1.13 0.09,-0.5 0.62,-0.77 1.47,-0.63 0.87,0.15 1.28,0.6 1.19,1.13 -0.09,0.54 -0.63,0.77 -1.45,0.63 z m 0.2,-1.41 c -0.67,-0.11 -1.09,0.03 -1.14,0.35 -0.06,0.36 0.33,0.6 0.99,0.71 0.64,0.11 1.08,0.02 1.14,-0.35 0.05,-0.31 -0.29,-0.59 -0.99,-0.71 z"
   id="path200" />
				<path
   class="st1"
   d="m 198.35,65.92 c -0.88,-0.15 -1.31,-0.56 -1.21,-1.13 0.09,-0.51 0.62,-0.77 1.47,-0.63 0.87,0.15 1.28,0.6 1.19,1.13 -0.08,0.54 -0.62,0.77 -1.45,0.63 z m 0.2,-1.41 c -0.67,-0.11 -1.09,0.03 -1.14,0.35 -0.06,0.36 0.33,0.6 0.99,0.71 0.64,0.11 1.08,0.02 1.14,-0.35 0.05,-0.3 -0.28,-0.59 -0.99,-0.71 z"
   id="path202" />
				<path
   class="st1"
   d="m 198.01,67.96 c -0.88,-0.15 -1.31,-0.56 -1.21,-1.13 0.09,-0.5 0.62,-0.77 1.47,-0.63 0.87,0.15 1.28,0.6 1.19,1.13 -0.09,0.55 -0.63,0.77 -1.45,0.63 z m 0.2,-1.41 c -0.67,-0.11 -1.09,0.03 -1.14,0.35 -0.06,0.36 0.33,0.6 0.99,0.71 0.64,0.11 1.08,0.02 1.14,-0.35 0.05,-0.3 -0.29,-0.59 -0.99,-0.71 z"
   id="path204" />
				<path
   class="st1"
   d="m 197.52,70.85 c -0.88,-0.15 -1.31,-0.56 -1.21,-1.13 0.09,-0.5 0.62,-0.77 1.47,-0.63 0.87,0.15 1.28,0.6 1.19,1.13 -0.09,0.54 -0.63,0.77 -1.45,0.63 z m 0.2,-1.41 c -0.67,-0.11 -1.09,0.03 -1.14,0.35 -0.06,0.36 0.33,0.6 0.99,0.71 0.64,0.11 1.08,0.02 1.14,-0.35 0.05,-0.31 -0.29,-0.59 -0.99,-0.71 z"
   id="path206" />
				<path
   class="st1"
   d="m 197.17,72.89 c -0.88,-0.15 -1.31,-0.56 -1.21,-1.13 0.09,-0.51 0.62,-0.77 1.47,-0.63 0.87,0.15 1.28,0.6 1.19,1.13 -0.09,0.54 -0.62,0.77 -1.45,0.63 z m 0.2,-1.41 c -0.67,-0.11 -1.09,0.03 -1.14,0.35 -0.06,0.36 0.33,0.6 0.99,0.71 0.64,0.11 1.08,0.02 1.14,-0.35 0.05,-0.31 -0.29,-0.59 -0.99,-0.71 z"
   id="path208" />
				<path
   class="st1"
   d="m 196.83,74.93 c -0.88,-0.15 -1.31,-0.56 -1.21,-1.13 0.09,-0.5 0.62,-0.77 1.47,-0.63 0.87,0.15 1.28,0.6 1.19,1.13 -0.09,0.54 -0.63,0.77 -1.45,0.63 z m 0.19,-1.41 c -0.67,-0.11 -1.09,0.03 -1.14,0.35 -0.06,0.36 0.33,0.6 0.99,0.71 0.64,0.11 1.08,0.02 1.14,-0.35 0.05,-0.3 -0.28,-0.59 -0.99,-0.71 z"
   id="path210" />
				<path
   class="st1"
   d="m 196.48,76.97 c -0.88,-0.15 -1.31,-0.56 -1.21,-1.13 0.09,-0.5 0.62,-0.77 1.47,-0.63 0.87,0.15 1.28,0.6 1.19,1.13 -0.09,0.54 -0.63,0.77 -1.45,0.63 z m 0.2,-1.41 c -0.67,-0.11 -1.09,0.03 -1.14,0.35 -0.06,0.36 0.33,0.6 0.99,0.71 0.64,0.11 1.08,0.02 1.14,-0.35 0.05,-0.3 -0.29,-0.59 -0.99,-0.71 z"
   id="path212" />
				<path
   class="st1"
   d="m 195.99,79.86 c -0.88,-0.15 -1.31,-0.56 -1.21,-1.13 0.09,-0.5 0.62,-0.77 1.47,-0.63 0.87,0.15 1.28,0.6 1.19,1.13 -0.09,0.54 -0.63,0.77 -1.45,0.63 z m 0.2,-1.41 c -0.67,-0.11 -1.09,0.03 -1.14,0.35 -0.06,0.36 0.33,0.6 0.99,0.71 0.64,0.11 1.08,0.02 1.14,-0.35 0.05,-0.31 -0.29,-0.59 -0.99,-0.71 z"
   id="path214" />
				<path
   class="st1"
   d="m 195.64,81.9 c -0.88,-0.15 -1.31,-0.56 -1.21,-1.13 0.09,-0.51 0.62,-0.77 1.47,-0.63 0.87,0.15 1.28,0.6 1.19,1.13 -0.09,0.54 -0.62,0.77 -1.45,0.63 z m 0.2,-1.41 c -0.67,-0.11 -1.09,0.03 -1.14,0.35 -0.06,0.36 0.33,0.6 0.99,0.71 0.64,0.11 1.08,0.02 1.14,-0.35 0.05,-0.31 -0.28,-0.59 -0.99,-0.71 z"
   id="path216" />
				<path
   class="st1"
   d="m 195.3,83.94 c -0.88,-0.15 -1.31,-0.56 -1.21,-1.13 0.09,-0.5 0.62,-0.77 1.47,-0.63 0.87,0.15 1.28,0.6 1.19,1.13 -0.09,0.54 -0.63,0.77 -1.45,0.63 z m 0.2,-1.41 c -0.67,-0.11 -1.09,0.03 -1.14,0.35 -0.06,0.36 0.33,0.6 0.99,0.71 0.64,0.11 1.08,0.02 1.14,-0.35 0.05,-0.31 -0.29,-0.59 -0.99,-0.71 z"
   id="path218" />
				<path
   class="st1"
   d="m 194.95,85.98 c -0.88,-0.15 -1.31,-0.56 -1.21,-1.13 0.09,-0.5 0.62,-0.77 1.47,-0.63 0.87,0.15 1.28,0.6 1.19,1.13 -0.09,0.54 -0.63,0.77 -1.45,0.63 z m 0.2,-1.41 c -0.67,-0.11 -1.09,0.03 -1.14,0.35 -0.06,0.36 0.33,0.6 0.99,0.71 0.64,0.11 1.08,0.02 1.14,-0.35 0.05,-0.3 -0.29,-0.59 -0.99,-0.71 z"
   id="path220" />
				<path
   class="st1"
   d="m 194.46,88.87 c -0.88,-0.15 -1.31,-0.56 -1.21,-1.13 0.09,-0.5 0.62,-0.77 1.47,-0.63 0.87,0.15 1.28,0.6 1.19,1.13 -0.09,0.54 -0.63,0.77 -1.45,0.63 z m 0.2,-1.41 c -0.67,-0.11 -1.09,0.03 -1.14,0.35 -0.06,0.36 0.33,0.6 0.99,0.71 0.64,0.11 1.08,0.02 1.14,-0.35 0.05,-0.31 -0.29,-0.59 -0.99,-0.71 z"
   id="path222" />
				<path
   class="st1"
   d="m 194.11,90.91 c -0.88,-0.15 -1.31,-0.56 -1.21,-1.13 0.09,-0.51 0.62,-0.77 1.47,-0.63 0.87,0.15 1.28,0.6 1.19,1.13 -0.08,0.54 -0.62,0.77 -1.45,0.63 z m 0.2,-1.41 c -0.67,-0.11 -1.09,0.03 -1.14,0.35 -0.06,0.36 0.33,0.6 0.99,0.71 0.64,0.11 1.08,0.02 1.14,-0.35 0.05,-0.31 -0.28,-0.59 -0.99,-0.71 z"
   id="path224" />
				<path
   class="st1"
   d="m 193.77,92.95 c -0.88,-0.15 -1.31,-0.56 -1.21,-1.13 0.09,-0.5 0.62,-0.77 1.47,-0.63 0.87,0.15 1.28,0.6 1.19,1.13 -0.09,0.54 -0.63,0.77 -1.45,0.63 z m 0.2,-1.41 c -0.67,-0.11 -1.09,0.03 -1.14,0.35 -0.06,0.36 0.33,0.6 0.99,0.71 0.64,0.11 1.08,0.02 1.14,-0.35 0.05,-0.31 -0.29,-0.59 -0.99,-0.71 z"
   id="path226" />
				<path
   class="st1"
   d="m 193.42,94.99 c -0.88,-0.15 -1.31,-0.56 -1.21,-1.13 0.09,-0.51 0.62,-0.77 1.47,-0.63 0.87,0.15 1.28,0.6 1.19,1.13 -0.09,0.54 -0.62,0.77 -1.45,0.63 z m 0.2,-1.41 c -0.67,-0.11 -1.09,0.03 -1.14,0.35 -0.06,0.36 0.33,0.6 0.99,0.71 0.64,0.11 1.08,0.02 1.14,-0.35 0.05,-0.3 -0.29,-0.59 -0.99,-0.71 z"
   id="path228" />
			</g>
		</g>
	</g>
<g
   id="_2">
</g>
<g
   id="_3">
</g>
<g
   id="_4">
</g>
</svg>
