<?xml version="1.0" encoding="UTF-8" standalone="no"?>
<svg
   viewBox="0 0 160 110"
   id="logo-icon"
   version="1.1"
   sodipodi:docname="f2ed937cada2ad967242c6345796c389.svg"
   width="550"
   height="390"
   xmlns:inkscape="http://www.inkscape.org/namespaces/inkscape"
   xmlns:sodipodi="http://sodipodi.sourceforge.net/DTD/sodipodi-0.dtd"
   xmlns="http://www.w3.org/2000/svg"
   xmlns:svg="http://www.w3.org/2000/svg">
  <defs
     id="defs11" />
  <sodipodi:namedview
     id="namedview9"
     pagecolor="#ffffff"
     bordercolor="#666666"
     borderopacity="1.0"
     inkscape:pageshadow="2"
     inkscape:pageopacity="0.0"
     inkscape:pagecheckerboard="0" />
  <path
     fill="#2c3f79"
     d="M 13.066,29.453 C 8.9,29.453 5.681,28.208 3.408,25.654 1.137,23.101 0,19.552 0,14.944 0,10.211 1.136,6.536 3.472,3.984 5.807,1.367 9.089,0.06 13.382,0.06 c 1.388,0 2.777,0.125 4.165,0.436 1.39,0.311 2.462,0.623 3.22,1.059 L 19.44,5.229 C 18.493,4.855 17.42,4.544 16.284,4.295 15.148,3.983 14.138,3.859 13.254,3.859 c -5.807,0 -8.773,3.674 -8.773,11.022 0,3.487 0.694,6.165 2.146,8.033 1.451,1.868 3.534,2.803 6.312,2.803 2.398,0 4.86,-0.499 7.385,-1.495 v 3.799 c -1.894,0.934 -4.355,1.432 -7.26,1.432 z m 34.401,-0.556 -0.884,-4.048 h -0.19 c -1.45,1.806 -2.84,2.99 -4.291,3.612 -1.452,0.623 -3.22,0.934 -5.302,0.934 -2.84,0 -5.05,-0.747 -6.691,-2.18 -1.641,-1.431 -2.399,-3.486 -2.399,-6.164 0,-5.73 4.608,-8.718 13.887,-8.968 l 4.86,-0.124 v -1.744 c 0,-2.242 -0.505,-3.86 -1.452,-4.92 -0.947,-1.058 -2.525,-1.618 -4.67,-1.618 -2.4,0 -5.114,0.747 -8.143,2.18 L 30.929,2.556 A 20.742,20.742 0 0 1 35.6,0.75 20.024,20.024 0 0 1 40.65,0.127 c 3.408,0 5.933,0.747 7.638,2.242 1.704,1.494 2.461,3.923 2.461,7.223 v 19.305 z m -9.784,-2.989 c 2.714,0 4.86,-0.747 6.375,-2.18 1.515,-1.494 2.336,-3.487 2.336,-6.165 V 15.01 l -4.355,0.187 c -3.472,0.125 -5.934,0.623 -7.512,1.62 -1.515,0.933 -2.272,2.428 -2.272,4.358 0,1.557 0.505,2.74 1.452,3.55 0.883,0.747 2.272,1.183 3.976,1.183 z M 75.432,0.06 c 1.262,0 2.398,0.125 3.408,0.311 L 78.21,4.357 C 77.01,4.107 76,3.983 75.053,3.983 c -2.335,0 -4.292,0.934 -5.933,2.803 -1.641,1.868 -2.462,4.172 -2.462,6.974 V 28.955 H 62.303 V 0.558 H 65.9 l 0.505,5.231 h 0.189 C 67.667,3.921 68.929,2.551 70.444,1.555 72.023,0.558 73.665,0.06 75.432,0.06 Z m 30.043,21.113 c 0,2.615 -1.01,4.67 -2.967,6.103 -2.02,1.432 -4.797,2.117 -8.395,2.117 -3.787,0 -6.754,-0.623 -8.9,-1.806 v -3.985 c 1.389,0.684 2.84,1.245 4.418,1.619 1.578,0.373 3.093,0.622 4.545,0.622 2.272,0 4.04,-0.373 5.239,-1.058 1.199,-0.685 1.831,-1.806 1.831,-3.3 0,-1.122 -0.505,-2.056 -1.452,-2.803 -0.947,-0.81 -2.84,-1.681 -5.681,-2.802 -2.651,-0.997 -4.545,-1.869 -5.68,-2.554 -1.137,-0.747 -1.958,-1.556 -2.526,-2.49 -0.568,-0.935 -0.82,-2.055 -0.82,-3.363 0,-2.304 0.947,-4.11 2.84,-5.48 C 89.821,0.685 92.472,0 95.754,0 c 3.093,0 6.123,0.623 9.089,1.868 l -1.515,3.487 c -2.903,-1.183 -5.491,-1.743 -7.827,-1.743 -2.082,0 -3.597,0.311 -4.67,0.934 -1.073,0.623 -1.578,1.494 -1.578,2.614 0,0.748 0.189,1.433 0.568,1.93 0.378,0.561 1.01,1.06 1.893,1.495 0.884,0.499 2.525,1.184 5.05,2.118 3.408,1.245 5.681,2.428 6.88,3.674 1.199,1.37 1.831,2.927 1.831,4.795 z"
     id="path2" />
  <path
     fill="#00a564"
     d="M 125.985,71 148.14,5.113 H 119.231 V 0.566 H 153 V 4.49 L 130.971,71 Z"
     id="path4" />
  <path
     fill="#7f8081"
     d="m 4.61,39.61 c -0.694,0 -1.2,0.249 -1.578,0.747 -0.379,0.498 -0.568,1.245 -0.568,2.117 0,1.868 0.694,2.865 2.146,2.865 0.631,0 1.326,-0.125 2.21,-0.436 v 1.494 c -0.695,0.312 -1.516,0.436 -2.336,0.436 -1.263,0 -2.21,-0.373 -2.84,-1.12 -0.632,-0.748 -1.01,-1.807 -1.01,-3.239 0,-0.872 0.189,-1.681 0.505,-2.304 0.315,-0.685 0.82,-1.183 1.388,-1.557 0.631,-0.373 1.326,-0.56 2.146,-0.56 a 5.4,5.4 0 0 1 2.525,0.623 L 6.63,40.108 C 6.314,39.983 5.999,39.796 5.683,39.734 5.241,39.672 4.926,39.61 4.61,39.61 Z m 10.857,7.1 -0.632,-1.992 H 11.68 l -0.632,1.993 H 9.092 l 3.03,-8.532 h 2.209 l 3.03,8.532 h -1.894 z m -1.073,-3.487 c -0.568,-1.806 -0.884,-2.864 -0.947,-3.113 -0.063,-0.25 -0.126,-0.436 -0.126,-0.56 -0.127,0.497 -0.505,1.743 -1.136,3.673 z m 6.942,0.247 v 3.238 h -1.83 V 38.24 h 2.524 c 1.2,0 2.02,0.187 2.588,0.623 0.568,0.436 0.82,1.059 0.82,1.93 0,0.499 -0.126,0.935 -0.441,1.308 -0.253,0.374 -0.695,0.685 -1.2,0.934 1.326,1.93 2.147,3.114 2.525,3.674 h -2.02 L 22.22,43.47 Z m 0,-1.432 h 0.568 c 0.568,0 1.01,-0.125 1.262,-0.311 0.253,-0.187 0.442,-0.499 0.442,-0.872 0,-0.374 -0.126,-0.685 -0.442,-0.872 -0.252,-0.187 -0.694,-0.25 -1.325,-0.25 h -0.568 v 2.305 z m 13.066,2.366 c 0,0.748 -0.252,1.37 -0.82,1.806 -0.569,0.436 -1.326,0.685 -2.336,0.685 a 6.19,6.19 0 0 1 -2.462,-0.498 v -1.681 c 0.569,0.249 1.074,0.436 1.452,0.56 0.379,0.125 0.758,0.187 1.073,0.187 0.379,0 0.695,-0.062 0.947,-0.25 0.19,-0.124 0.316,-0.373 0.316,-0.684 0,-0.187 -0.064,-0.312 -0.127,-0.436 -0.063,-0.125 -0.252,-0.25 -0.441,-0.374 -0.19,-0.124 -0.568,-0.311 -1.137,-0.56 -0.505,-0.25 -0.946,-0.498 -1.199,-0.685 a 4.007,4.007 0 0 1 -0.631,-0.81 c -0.126,-0.311 -0.253,-0.623 -0.253,-1.058 0,-0.748 0.253,-1.37 0.758,-1.744 0.505,-0.436 1.2,-0.623 2.146,-0.623 0.442,0 0.884,0.063 1.262,0.187 0.38,0.125 0.82,0.25 1.263,0.436 l -0.568,1.37 a 5.995,5.995 0 0 0 -1.137,-0.374 c -0.315,-0.062 -0.568,-0.124 -0.883,-0.124 -0.316,0 -0.631,0.062 -0.82,0.249 a 0.794,0.794 0 0 0 -0.253,0.623 0.89,0.89 0 0 0 0.126,0.435 c 0.063,0.125 0.19,0.25 0.379,0.312 0.19,0.124 0.568,0.311 1.136,0.623 0.82,0.373 1.326,0.747 1.641,1.12 0.442,0.25 0.568,0.748 0.568,1.308 z m 9.59,2.304 h -1.83 v -3.674 h -3.41 v 3.674 h -1.83 V 38.24 h 1.83 v 3.3 h 3.41 v -3.3 h 1.83 v 8.47 z m 9.024,0.002 -0.63,-1.992 h -3.157 l -0.631,1.993 H 46.64 l 3.03,-8.532 h 2.21 l 3.029,8.532 H 53.015 Z M 51.943,43.223 C 51.375,41.417 51.06,40.359 50.996,40.11 50.933,39.86 50.87,39.674 50.87,39.55 c -0.126,0.497 -0.505,1.743 -1.136,3.673 h 2.21 z m 6.883,0.247 v 3.238 h -1.83 V 38.24 h 2.525 c 1.199,0 2.02,0.187 2.588,0.623 0.568,0.436 0.82,1.059 0.82,1.93 0,0.499 -0.126,0.935 -0.442,1.308 -0.252,0.374 -0.694,0.685 -1.199,0.934 1.326,1.93 2.146,3.114 2.525,3.674 h -1.957 l -2.083,-3.238 h -0.947 z m 0,-1.432 h 0.568 c 0.569,0 1.01,-0.125 1.263,-0.311 0.252,-0.187 0.442,-0.499 0.442,-0.872 0,-0.374 -0.127,-0.685 -0.442,-0.872 -0.253,-0.187 -0.694,-0.25 -1.326,-0.25 h -0.568 v 2.305 z m 7.134,4.67 V 38.24 h 1.83 v 8.47 h -1.83 z m 13.192,0 h -2.335 l -3.725,-6.414 h -0.063 c 0.063,1.121 0.127,1.93 0.127,2.429 v 3.985 H 71.514 V 38.24 h 2.273 l 3.724,6.352 h 0.063 c -0.063,-1.12 -0.063,-1.868 -0.063,-2.366 V 38.24 h 1.641 v 8.47 z m 7.011,-4.732 h 3.409 v 4.421 a 8.222,8.222 0 0 1 -1.578,0.374 c -0.505,0.062 -1.01,0.124 -1.515,0.124 -1.326,0 -2.272,-0.373 -2.967,-1.12 -0.694,-0.748 -1.01,-1.807 -1.01,-3.239 0,-1.37 0.379,-2.429 1.2,-3.176 0.82,-0.747 1.893,-1.12 3.282,-1.12 0.883,0 1.704,0.186 2.525,0.497 l -0.632,1.433 c -0.63,-0.312 -1.262,-0.436 -1.956,-0.436 -0.758,0 -1.389,0.249 -1.894,0.81 -0.505,0.498 -0.694,1.245 -0.694,2.117 0,0.934 0.19,1.619 0.568,2.117 0.379,0.498 0.947,0.747 1.64,0.747 0.38,0 0.758,-0.062 1.137,-0.124 v -1.744 h -1.641 v -1.681 z m 17.668,4.734 -0.631,-1.992 h -3.156 l -0.631,1.993 h -1.957 l 3.03,-8.532 h 2.209 l 3.03,8.532 h -1.894 z m -1.073,-3.487 c -0.568,-1.806 -0.884,-2.864 -0.947,-3.113 -0.063,-0.25 -0.126,-0.436 -0.126,-0.56 -0.126,0.497 -0.505,1.743 -1.136,3.673 z m 11.045,-2.306 c 0,0.934 -0.316,1.62 -0.884,2.117 -0.568,0.498 -1.389,0.748 -2.462,0.748 H 109.7 v 2.989 h -1.831 v -8.532 h 2.778 c 1.073,0 1.83,0.25 2.398,0.685 0.505,0.436 0.758,1.121 0.758,1.993 z m -4.103,1.308 h 0.631 c 0.568,0 1.01,-0.125 1.262,-0.312 0.253,-0.249 0.442,-0.56 0.442,-0.934 0,-0.436 -0.126,-0.747 -0.378,-0.934 -0.253,-0.187 -0.568,-0.311 -1.073,-0.311 h -0.821 v 2.49 H 109.7 Z m 12.628,-1.308 c 0,0.934 -0.316,1.62 -0.884,2.117 -0.568,0.498 -1.389,0.748 -2.462,0.748 h -0.757 v 2.989 h -1.831 v -8.532 h 2.778 c 1.073,0 1.83,0.25 2.398,0.685 0.505,0.436 0.758,1.121 0.758,1.993 z m -4.103,1.308 h 0.631 c 0.568,0 1.01,-0.125 1.262,-0.312 0.253,-0.249 0.442,-0.56 0.442,-0.934 0,-0.436 -0.126,-0.747 -0.378,-0.934 -0.253,-0.187 -0.569,-0.311 -1.074,-0.311 h -0.82 v 2.49 h -0.063 z"
     id="path6" />
</svg>
